<svg xmlns="http://www.w3.org/2000/svg" xmlns:xlink="http://www.w3.org/1999/xlink" width="1600" zoomAndPan="magnify" viewBox="0 0 1200 225" height="300" preserveAspectRatio="xMidYMid meet" version="1.0"><defs><linearGradient x1="0" gradientTransform="matrix(1200, 0, 0, 225, 0, 0.00001)" y1="-0" x2="0" gradientUnits="userSpaceOnUse" y2="1" id="0cb243ddf1"><stop stop-opacity="1" stop-color="rgb(41.569519%, 18.03894%, 62.748718%)" offset="0"/><stop stop-opacity="1" stop-color="rgb(41.40625%, 18.186951%, 62.675476%)" offset="0.0078125"/><stop stop-opacity="1" stop-color="rgb(41.081238%, 18.484497%, 62.528992%)" offset="0.015625"/><stop stop-opacity="1" stop-color="rgb(40.756226%, 18.782043%, 62.380981%)" offset="0.0234375"/><stop stop-opacity="1" stop-color="rgb(40.431213%, 19.078064%, 62.234497%)" offset="0.03125"/><stop stop-opacity="1" stop-color="rgb(40.107727%, 19.37561%, 62.086487%)" offset="0.0390625"/><stop stop-opacity="1" stop-color="rgb(39.782715%, 19.673157%, 61.940002%)" offset="0.046875"/><stop stop-opacity="1" stop-color="rgb(39.457703%, 19.970703%, 61.791992%)" offset="0.0546875"/><stop stop-opacity="1" stop-color="rgb(39.13269%, 20.26825%, 61.645508%)" offset="0.0625"/><stop stop-opacity="1" stop-color="rgb(38.807678%, 20.56427%, 61.499023%)" offset="0.0703125"/><stop stop-opacity="1" stop-color="rgb(38.482666%, 20.861816%, 61.351013%)" offset="0.078125"/><stop stop-opacity="1" stop-color="rgb(38.15918%, 21.159363%, 61.204529%)" offset="0.0859375"/><stop stop-opacity="1" stop-color="rgb(37.834167%, 21.456909%, 61.056519%)" offset="0.09375"/><stop stop-opacity="1" stop-color="rgb(37.509155%, 21.75293%, 60.910034%)" offset="0.101562"/><stop stop-opacity="1" stop-color="rgb(37.184143%, 22.050476%, 60.76355%)" offset="0.109375"/><stop stop-opacity="1" stop-color="rgb(36.859131%, 22.348022%, 60.61554%)" offset="0.117188"/><stop stop-opacity="1" stop-color="rgb(36.534119%, 22.645569%, 60.469055%)" offset="0.125"/><stop stop-opacity="1" stop-color="rgb(36.210632%, 22.941589%, 60.321045%)" offset="0.132812"/><stop stop-opacity="1" stop-color="rgb(35.88562%, 23.239136%, 60.174561%)" offset="0.140625"/><stop stop-opacity="1" stop-color="rgb(35.560608%, 23.536682%, 60.028076%)" offset="0.148438"/><stop stop-opacity="1" stop-color="rgb(35.235596%, 23.834229%, 59.880066%)" offset="0.15625"/><stop stop-opacity="1" stop-color="rgb(34.910583%, 24.130249%, 59.733582%)" offset="0.164062"/><stop stop-opacity="1" stop-color="rgb(34.585571%, 24.427795%, 59.585571%)" offset="0.171875"/><stop stop-opacity="1" stop-color="rgb(34.262085%, 24.725342%, 59.439087%)" offset="0.179688"/><stop stop-opacity="1" stop-color="rgb(33.937073%, 25.022888%, 59.292603%)" offset="0.1875"/><stop stop-opacity="1" stop-color="rgb(33.612061%, 25.320435%, 59.144592%)" offset="0.195312"/><stop stop-opacity="1" stop-color="rgb(33.287048%, 25.616455%, 58.998108%)" offset="0.203125"/><stop stop-opacity="1" stop-color="rgb(32.962036%, 25.914001%, 58.850098%)" offset="0.210938"/><stop stop-opacity="1" stop-color="rgb(32.637024%, 26.211548%, 58.703613%)" offset="0.21875"/><stop stop-opacity="1" stop-color="rgb(32.313538%, 26.509094%, 58.555603%)" offset="0.226562"/><stop stop-opacity="1" stop-color="rgb(31.988525%, 26.805115%, 58.409119%)" offset="0.234375"/><stop stop-opacity="1" stop-color="rgb(31.663513%, 27.102661%, 58.262634%)" offset="0.242188"/><stop stop-opacity="1" stop-color="rgb(31.338501%, 27.400208%, 58.114624%)" offset="0.25"/><stop stop-opacity="1" stop-color="rgb(31.013489%, 27.697754%, 57.96814%)" offset="0.257812"/><stop stop-opacity="1" stop-color="rgb(30.688477%, 27.993774%, 57.820129%)" offset="0.265625"/><stop stop-opacity="1" stop-color="rgb(30.363464%, 28.291321%, 57.673645%)" offset="0.273438"/><stop stop-opacity="1" stop-color="rgb(30.039978%, 28.588867%, 57.527161%)" offset="0.28125"/><stop stop-opacity="1" stop-color="rgb(29.714966%, 28.886414%, 57.37915%)" offset="0.289063"/><stop stop-opacity="1" stop-color="rgb(29.389954%, 29.182434%, 57.232666%)" offset="0.296875"/><stop stop-opacity="1" stop-color="rgb(29.064941%, 29.47998%, 57.084656%)" offset="0.304688"/><stop stop-opacity="1" stop-color="rgb(28.739929%, 29.777527%, 56.938171%)" offset="0.3125"/><stop stop-opacity="1" stop-color="rgb(28.414917%, 30.075073%, 56.791687%)" offset="0.320313"/><stop stop-opacity="1" stop-color="rgb(28.091431%, 30.37262%, 56.643677%)" offset="0.328125"/><stop stop-opacity="1" stop-color="rgb(27.766418%, 30.66864%, 56.497192%)" offset="0.335938"/><stop stop-opacity="1" stop-color="rgb(27.441406%, 30.966187%, 56.349182%)" offset="0.34375"/><stop stop-opacity="1" stop-color="rgb(27.116394%, 31.263733%, 56.202698%)" offset="0.351563"/><stop stop-opacity="1" stop-color="rgb(26.791382%, 31.561279%, 56.054688%)" offset="0.359375"/><stop stop-opacity="1" stop-color="rgb(26.46637%, 31.8573%, 55.908203%)" offset="0.367188"/><stop stop-opacity="1" stop-color="rgb(26.142883%, 32.154846%, 55.761719%)" offset="0.375"/><stop stop-opacity="1" stop-color="rgb(25.817871%, 32.452393%, 55.613708%)" offset="0.382813"/><stop stop-opacity="1" stop-color="rgb(25.492859%, 32.749939%, 55.467224%)" offset="0.390625"/><stop stop-opacity="1" stop-color="rgb(25.167847%, 33.045959%, 55.319214%)" offset="0.398438"/><stop stop-opacity="1" stop-color="rgb(24.842834%, 33.343506%, 55.172729%)" offset="0.40625"/><stop stop-opacity="1" stop-color="rgb(24.517822%, 33.641052%, 55.026245%)" offset="0.414063"/><stop stop-opacity="1" stop-color="rgb(24.194336%, 33.938599%, 54.878235%)" offset="0.421875"/><stop stop-opacity="1" stop-color="rgb(23.869324%, 34.234619%, 54.73175%)" offset="0.429688"/><stop stop-opacity="1" stop-color="rgb(23.544312%, 34.532166%, 54.58374%)" offset="0.4375"/><stop stop-opacity="1" stop-color="rgb(23.219299%, 34.829712%, 54.437256%)" offset="0.445313"/><stop stop-opacity="1" stop-color="rgb(22.894287%, 35.127258%, 54.290771%)" offset="0.453125"/><stop stop-opacity="1" stop-color="rgb(22.569275%, 35.424805%, 54.142761%)" offset="0.460938"/><stop stop-opacity="1" stop-color="rgb(22.245789%, 35.720825%, 53.996277%)" offset="0.46875"/><stop stop-opacity="1" stop-color="rgb(21.920776%, 36.018372%, 53.848267%)" offset="0.476563"/><stop stop-opacity="1" stop-color="rgb(21.595764%, 36.315918%, 53.701782%)" offset="0.484375"/><stop stop-opacity="1" stop-color="rgb(21.270752%, 36.613464%, 53.555298%)" offset="0.492188"/><stop stop-opacity="1" stop-color="rgb(20.94574%, 36.909485%, 53.407288%)" offset="0.5"/><stop stop-opacity="1" stop-color="rgb(20.620728%, 37.207031%, 53.260803%)" offset="0.507812"/><stop stop-opacity="1" stop-color="rgb(20.295715%, 37.504578%, 53.112793%)" offset="0.515625"/><stop stop-opacity="1" stop-color="rgb(19.972229%, 37.802124%, 52.966309%)" offset="0.523438"/><stop stop-opacity="1" stop-color="rgb(19.647217%, 38.098145%, 52.818298%)" offset="0.53125"/><stop stop-opacity="1" stop-color="rgb(19.322205%, 38.395691%, 52.671814%)" offset="0.539062"/><stop stop-opacity="1" stop-color="rgb(18.997192%, 38.693237%, 52.52533%)" offset="0.546875"/><stop stop-opacity="1" stop-color="rgb(18.67218%, 38.990784%, 52.377319%)" offset="0.554688"/><stop stop-opacity="1" stop-color="rgb(18.347168%, 39.286804%, 52.230835%)" offset="0.5625"/><stop stop-opacity="1" stop-color="rgb(18.023682%, 39.584351%, 52.082825%)" offset="0.570313"/><stop stop-opacity="1" stop-color="rgb(17.698669%, 39.881897%, 51.93634%)" offset="0.578125"/><stop stop-opacity="1" stop-color="rgb(17.373657%, 40.179443%, 51.789856%)" offset="0.585938"/><stop stop-opacity="1" stop-color="rgb(17.048645%, 40.47699%, 51.641846%)" offset="0.59375"/><stop stop-opacity="1" stop-color="rgb(16.723633%, 40.77301%, 51.495361%)" offset="0.601562"/><stop stop-opacity="1" stop-color="rgb(16.398621%, 41.070557%, 51.347351%)" offset="0.609375"/><stop stop-opacity="1" stop-color="rgb(16.075134%, 41.368103%, 51.200867%)" offset="0.617188"/><stop stop-opacity="1" stop-color="rgb(15.750122%, 41.665649%, 51.054382%)" offset="0.625"/><stop stop-opacity="1" stop-color="rgb(15.42511%, 41.96167%, 50.906372%)" offset="0.632813"/><stop stop-opacity="1" stop-color="rgb(15.100098%, 42.259216%, 50.759888%)" offset="0.640625"/><stop stop-opacity="1" stop-color="rgb(14.775085%, 42.556763%, 50.611877%)" offset="0.648438"/><stop stop-opacity="1" stop-color="rgb(14.450073%, 42.854309%, 50.465393%)" offset="0.65625"/><stop stop-opacity="1" stop-color="rgb(14.126587%, 43.15033%, 50.318909%)" offset="0.664062"/><stop stop-opacity="1" stop-color="rgb(13.801575%, 43.447876%, 50.170898%)" offset="0.671875"/><stop stop-opacity="1" stop-color="rgb(13.476562%, 43.745422%, 50.024414%)" offset="0.679688"/><stop stop-opacity="1" stop-color="rgb(13.15155%, 44.042969%, 49.876404%)" offset="0.6875"/><stop stop-opacity="1" stop-color="rgb(12.826538%, 44.338989%, 49.729919%)" offset="0.695313"/><stop stop-opacity="1" stop-color="rgb(12.501526%, 44.636536%, 49.581909%)" offset="0.703125"/><stop stop-opacity="1" stop-color="rgb(12.17804%, 44.934082%, 49.435425%)" offset="0.710938"/><stop stop-opacity="1" stop-color="rgb(11.853027%, 45.231628%, 49.28894%)" offset="0.71875"/><stop stop-opacity="1" stop-color="rgb(11.528015%, 45.529175%, 49.14093%)" offset="0.726562"/><stop stop-opacity="1" stop-color="rgb(11.203003%, 45.825195%, 48.994446%)" offset="0.734375"/><stop stop-opacity="1" stop-color="rgb(10.877991%, 46.122742%, 48.846436%)" offset="0.742188"/><stop stop-opacity="1" stop-color="rgb(10.552979%, 46.420288%, 48.699951%)" offset="0.75"/><stop stop-opacity="1" stop-color="rgb(10.227966%, 46.717834%, 48.553467%)" offset="0.757813"/><stop stop-opacity="1" stop-color="rgb(9.90448%, 47.013855%, 48.405457%)" offset="0.765625"/><stop stop-opacity="1" stop-color="rgb(9.579468%, 47.311401%, 48.258972%)" offset="0.773438"/><stop stop-opacity="1" stop-color="rgb(9.254456%, 47.608948%, 48.110962%)" offset="0.78125"/><stop stop-opacity="1" stop-color="rgb(8.929443%, 47.906494%, 47.964478%)" offset="0.789062"/><stop stop-opacity="1" stop-color="rgb(8.604431%, 48.202515%, 47.817993%)" offset="0.796875"/><stop stop-opacity="1" stop-color="rgb(8.279419%, 48.500061%, 47.669983%)" offset="0.804687"/><stop stop-opacity="1" stop-color="rgb(7.955933%, 48.797607%, 47.523499%)" offset="0.8125"/><stop stop-opacity="1" stop-color="rgb(7.63092%, 49.095154%, 47.375488%)" offset="0.820313"/><stop stop-opacity="1" stop-color="rgb(7.305908%, 49.391174%, 47.229004%)" offset="0.828125"/><stop stop-opacity="1" stop-color="rgb(6.980896%, 49.688721%, 47.08252%)" offset="0.835938"/><stop stop-opacity="1" stop-color="rgb(6.655884%, 49.986267%, 46.934509%)" offset="0.84375"/><stop stop-opacity="1" stop-color="rgb(6.330872%, 50.283813%, 46.788025%)" offset="0.851562"/><stop stop-opacity="1" stop-color="rgb(6.007385%, 50.58136%, 46.640015%)" offset="0.859375"/><stop stop-opacity="1" stop-color="rgb(5.682373%, 50.87738%, 46.49353%)" offset="0.867187"/><stop stop-opacity="1" stop-color="rgb(5.357361%, 51.174927%, 46.34552%)" offset="0.875"/><stop stop-opacity="1" stop-color="rgb(5.032349%, 51.472473%, 46.199036%)" offset="0.882813"/><stop stop-opacity="1" stop-color="rgb(4.707336%, 51.77002%, 46.052551%)" offset="0.890625"/><stop stop-opacity="1" stop-color="rgb(4.382324%, 52.06604%, 45.904541%)" offset="0.898438"/><stop stop-opacity="1" stop-color="rgb(4.058838%, 52.363586%, 45.758057%)" offset="0.90625"/><stop stop-opacity="1" stop-color="rgb(3.733826%, 52.661133%, 45.610046%)" offset="0.914062"/><stop stop-opacity="1" stop-color="rgb(3.408813%, 52.958679%, 45.463562%)" offset="0.921875"/><stop stop-opacity="1" stop-color="rgb(3.083801%, 53.2547%, 45.317078%)" offset="0.929687"/><stop stop-opacity="1" stop-color="rgb(2.758789%, 53.552246%, 45.169067%)" offset="0.9375"/><stop stop-opacity="1" stop-color="rgb(2.433777%, 53.849792%, 45.022583%)" offset="0.945313"/><stop stop-opacity="1" stop-color="rgb(2.110291%, 54.147339%, 44.874573%)" offset="0.953125"/><stop stop-opacity="1" stop-color="rgb(1.785278%, 54.443359%, 44.728088%)" offset="0.960938"/><stop stop-opacity="1" stop-color="rgb(1.460266%, 54.740906%, 44.581604%)" offset="0.96875"/><stop stop-opacity="1" stop-color="rgb(1.135254%, 55.038452%, 44.433594%)" offset="0.976562"/><stop stop-opacity="1" stop-color="rgb(0.810242%, 55.335999%, 44.287109%)" offset="0.984375"/><stop stop-opacity="1" stop-color="rgb(0.485229%, 55.633545%, 44.139099%)" offset="0.992187"/><stop stop-opacity="1" stop-color="rgb(0.161743%, 55.929565%, 43.992615%)" offset="1"/></linearGradient><clipPath id="758e1e7c4b"><path d="M 0 140 L 1200 140 L 1200 225 L 0 225 Z M 0 140 " clip-rule="nonzero"/></clipPath><clipPath id="7aa8316b2d"><path d="M 0 165 C 200 135 400 132.5 600 157.5 C 800 182.5 1000 177.5 1200 142.5 L 1200 225 L 0 225 Z M 0 165 " clip-rule="nonzero"/></clipPath><linearGradient x1="0" gradientTransform="matrix(1200, 0, 0, 84.545448, 0, 140.454566)" y1="-0.0940863" x2="0" gradientUnits="userSpaceOnUse" y2="1" id="1eff7c317c"><stop stop-opacity="1" stop-color="rgb(1.179504%, 43.919373%, 34.509277%)" offset="0"/><stop stop-opacity="1" stop-color="rgb(1.170349%, 43.751526%, 34.365845%)" offset="0.125"/><stop stop-opacity="1" stop-color="rgb(1.15509%, 43.450928%, 34.109497%)" offset="0.15625"/><stop stop-opacity="1" stop-color="rgb(1.141357%, 43.182373%, 33.882141%)" offset="0.1875"/><stop stop-opacity="1" stop-color="rgb(1.127625%, 42.913818%, 33.654785%)" offset="0.21875"/><stop stop-opacity="1" stop-color="rgb(1.113892%, 42.64679%, 33.425903%)" offset="0.25"/><stop stop-opacity="1" stop-color="rgb(1.100159%, 42.378235%, 33.198547%)" offset="0.28125"/><stop stop-opacity="1" stop-color="rgb(1.086426%, 42.10968%, 32.969666%)" offset="0.3125"/><stop stop-opacity="1" stop-color="rgb(1.072693%, 41.842651%, 32.74231%)" offset="0.34375"/><stop stop-opacity="1" stop-color="rgb(1.05896%, 41.574097%, 32.513428%)" offset="0.375"/><stop stop-opacity="1" stop-color="rgb(1.045227%, 41.305542%, 32.286072%)" offset="0.40625"/><stop stop-opacity="1" stop-color="rgb(1.031494%, 41.038513%, 32.05719%)" offset="0.4375"/><stop stop-opacity="1" stop-color="rgb(1.017761%, 40.769958%, 31.829834%)" offset="0.46875"/><stop stop-opacity="1" stop-color="rgb(1.004028%, 40.501404%, 31.600952%)" offset="0.5"/><stop stop-opacity="1" stop-color="rgb(0.990295%, 40.234375%, 31.373596%)" offset="0.53125"/><stop stop-opacity="1" stop-color="rgb(0.976562%, 39.96582%, 31.14624%)" offset="0.5625"/><stop stop-opacity="1" stop-color="rgb(0.96283%, 39.697266%, 30.917358%)" offset="0.59375"/><stop stop-opacity="1" stop-color="rgb(0.949097%, 39.430237%, 30.690002%)" offset="0.625"/><stop stop-opacity="1" stop-color="rgb(0.935364%, 39.161682%, 30.461121%)" offset="0.65625"/><stop stop-opacity="1" stop-color="rgb(0.921631%, 38.893127%, 30.233765%)" offset="0.6875"/><stop stop-opacity="1" stop-color="rgb(0.907898%, 38.626099%, 30.004883%)" offset="0.71875"/><stop stop-opacity="1" stop-color="rgb(0.894165%, 38.357544%, 29.777527%)" offset="0.75"/><stop stop-opacity="1" stop-color="rgb(0.880432%, 38.088989%, 29.548645%)" offset="0.78125"/><stop stop-opacity="1" stop-color="rgb(0.866699%, 37.82196%, 29.321289%)" offset="0.8125"/><stop stop-opacity="1" stop-color="rgb(0.852966%, 37.553406%, 29.092407%)" offset="0.84375"/><stop stop-opacity="1" stop-color="rgb(0.840759%, 37.284851%, 28.865051%)" offset="0.875"/><stop stop-opacity="1" stop-color="rgb(0.827026%, 37.017822%, 28.637695%)" offset="0.90625"/><stop stop-opacity="1" stop-color="rgb(0.813293%, 36.749268%, 28.408813%)" offset="0.9375"/><stop stop-opacity="1" stop-color="rgb(0.799561%, 36.480713%, 28.181458%)" offset="0.96875"/><stop stop-opacity="1" stop-color="rgb(0.785828%, 36.213684%, 27.952576%)" offset="1"/></linearGradient><clipPath id="d264fecf0c"><path d="M 188 112.5 L 258.5 112.5 L 258.5 170.25 L 188 170.25 Z M 188 112.5 " clip-rule="nonzero"/></clipPath><clipPath id="319c9268c3"><path d="M 790.332031 148.726562 L 821.832031 148.726562 L 821.832031 174.226562 L 790.332031 174.226562 Z M 790.332031 148.726562 " clip-rule="nonzero"/></clipPath><clipPath id="568f7f1555"><path d="M 1050.304688 102.832031 L 1126.804688 102.832031 L 1126.804688 170.332031 L 1050.304688 170.332031 Z M 1050.304688 102.832031 " clip-rule="nonzero"/></clipPath><clipPath id="08ac5012b1"><path d="M 34 5 L 76.804688 5 L 76.804688 68.332031 L 34 68.332031 Z M 34 5 " clip-rule="nonzero"/></clipPath><clipPath id="f36b1347c8"><path d="M 1 0.832031 L 39 0.832031 L 39 64 L 1 64 Z M 1 0.832031 " clip-rule="nonzero"/></clipPath><clipPath id="0745c0dbcd"><rect x="0" width="77" y="0" height="69"/></clipPath></defs><rect x="-120" width="1440" fill="#ffffff" y="-22.5" height="270" fill-opacity="1"/><rect x="-120" width="1440" fill="#ffffff" y="-22.5" height="270" fill-opacity="1"/><rect x="-120" fill="url(#0cb243ddf1)" width="1440" y="-22.5" height="270"/><path fill="#ffffff" d="M 1020 52.5 C 1020 53.972656 1019.925781 55.445312 1019.785156 56.910156 C 1019.640625 58.378906 1019.421875 59.832031 1019.136719 61.277344 C 1018.847656 62.722656 1018.488281 64.152344 1018.0625 65.5625 C 1017.632812 66.972656 1017.136719 68.359375 1016.574219 69.722656 C 1016.011719 71.082031 1015.382812 72.414062 1014.6875 73.710938 C 1013.992188 75.011719 1013.234375 76.273438 1012.417969 77.5 C 1011.597656 78.726562 1010.71875 79.910156 1009.785156 81.046875 C 1008.851562 82.1875 1007.863281 83.277344 1006.820312 84.320312 C 1005.777344 85.363281 1004.6875 86.351562 1003.546875 87.285156 C 1002.410156 88.21875 1001.226562 89.097656 1000 89.917969 C 998.773438 90.734375 997.511719 91.492188 996.210938 92.1875 C 994.914062 92.882812 993.582031 93.511719 992.21875 94.074219 C 990.859375 94.636719 989.472656 95.132812 988.0625 95.5625 C 986.652344 95.988281 985.222656 96.347656 983.777344 96.636719 C 982.332031 96.921875 980.878906 97.140625 979.410156 97.285156 C 977.945312 97.429688 976.472656 97.5 975 97.5 C 973.527344 97.5 972.054688 97.429688 970.589844 97.285156 C 969.121094 97.140625 967.667969 96.921875 966.222656 96.636719 C 964.777344 96.347656 963.347656 95.988281 961.9375 95.5625 C 960.527344 95.132812 959.140625 94.636719 957.777344 94.074219 C 956.417969 93.511719 955.085938 92.882812 953.785156 92.1875 C 952.488281 91.492188 951.226562 90.734375 950 89.917969 C 948.773438 89.097656 947.589844 88.21875 946.453125 87.285156 C 945.3125 86.351562 944.222656 85.363281 943.179688 84.320312 C 942.136719 83.277344 941.148438 82.1875 940.214844 81.046875 C 939.28125 79.910156 938.402344 78.726562 937.582031 77.5 C 936.765625 76.273438 936.007812 75.011719 935.3125 73.710938 C 934.617188 72.414062 933.988281 71.082031 933.425781 69.722656 C 932.863281 68.359375 932.367188 66.972656 931.9375 65.5625 C 931.511719 64.152344 931.152344 62.722656 930.863281 61.277344 C 930.578125 59.832031 930.359375 58.378906 930.214844 56.910156 C 930.074219 55.445312 930 53.972656 930 52.5 C 930 51.027344 930.074219 49.554688 930.214844 48.089844 C 930.359375 46.621094 930.578125 45.167969 930.863281 43.722656 C 931.152344 42.277344 931.511719 40.847656 931.9375 39.4375 C 932.367188 38.027344 932.863281 36.640625 933.425781 35.277344 C 933.988281 33.917969 934.617188 32.585938 935.3125 31.289062 C 936.007812 29.988281 936.765625 28.726562 937.582031 27.5 C 938.402344 26.273438 939.28125 25.089844 940.214844 23.953125 C 941.148438 22.8125 942.136719 21.722656 943.179688 20.679688 C 944.222656 19.636719 945.3125 18.648438 946.453125 17.714844 C 947.589844 16.78125 948.773438 15.902344 950 15.082031 C 951.226562 14.265625 952.488281 13.507812 953.785156 12.8125 C 955.085938 12.117188 956.417969 11.488281 957.777344 10.925781 C 959.140625 10.363281 960.527344 9.867188 961.9375 9.4375 C 963.347656 9.011719 964.777344 8.652344 966.222656 8.363281 C 967.667969 8.078125 969.121094 7.859375 970.589844 7.714844 C 972.054688 7.570312 973.527344 7.5 975 7.5 C 976.472656 7.5 977.945312 7.570312 979.410156 7.714844 C 980.878906 7.859375 982.332031 8.078125 983.777344 8.363281 C 985.222656 8.652344 986.652344 9.011719 988.0625 9.4375 C 989.472656 9.867188 990.859375 10.363281 992.21875 10.925781 C 993.582031 11.488281 994.914062 12.117188 996.210938 12.8125 C 997.511719 13.507812 998.773438 14.265625 1000 15.082031 C 1001.226562 15.902344 1002.410156 16.78125 1003.546875 17.714844 C 1004.6875 18.648438 1005.777344 19.636719 1006.820312 20.679688 C 1007.863281 21.722656 1008.851562 22.8125 1009.785156 23.953125 C 1010.71875 25.089844 1011.597656 26.273438 1012.417969 27.5 C 1013.234375 28.726562 1013.992188 29.988281 1014.6875 31.289062 C 1015.382812 32.585938 1016.011719 33.917969 1016.574219 35.277344 C 1017.136719 36.640625 1017.632812 38.027344 1018.0625 39.4375 C 1018.488281 40.847656 1018.847656 42.277344 1019.136719 43.722656 C 1019.421875 45.167969 1019.640625 46.621094 1019.785156 48.089844 C 1019.925781 49.554688 1020 51.027344 1020 52.5 Z M 1020 52.5 " fill-opacity="0.08" fill-rule="nonzero"/><path fill="#ffffff" d="M 1003.5 52.5 C 1003.5 53.433594 1003.453125 54.363281 1003.363281 55.292969 C 1003.269531 56.222656 1003.132812 57.144531 1002.953125 58.058594 C 1002.769531 58.976562 1002.542969 59.878906 1002.273438 60.773438 C 1002 61.667969 1001.6875 62.542969 1001.332031 63.40625 C 1000.972656 64.269531 1000.574219 65.113281 1000.132812 65.933594 C 999.695312 66.757812 999.214844 67.558594 998.695312 68.332031 C 998.179688 69.109375 997.621094 69.859375 997.03125 70.582031 C 996.4375 71.300781 995.8125 71.992188 995.152344 72.652344 C 994.492188 73.3125 993.800781 73.9375 993.082031 74.53125 C 992.359375 75.121094 991.609375 75.679688 990.832031 76.195312 C 990.058594 76.714844 989.257812 77.195312 988.433594 77.632812 C 987.613281 78.074219 986.769531 78.472656 985.90625 78.832031 C 985.042969 79.1875 984.167969 79.5 983.273438 79.773438 C 982.378906 80.042969 981.476562 80.269531 980.558594 80.453125 C 979.644531 80.632812 978.722656 80.769531 977.792969 80.863281 C 976.863281 80.953125 975.933594 81 975 81 C 974.066406 81 973.136719 80.953125 972.207031 80.863281 C 971.277344 80.769531 970.355469 80.632812 969.441406 80.453125 C 968.523438 80.269531 967.621094 80.042969 966.726562 79.773438 C 965.832031 79.5 964.957031 79.1875 964.09375 78.832031 C 963.230469 78.472656 962.386719 78.074219 961.566406 77.632812 C 960.742188 77.195312 959.941406 76.714844 959.167969 76.195312 C 958.390625 75.679688 957.640625 75.121094 956.917969 74.53125 C 956.199219 73.9375 955.507812 73.3125 954.847656 72.652344 C 954.1875 71.992188 953.5625 71.300781 952.96875 70.582031 C 952.375 69.859375 951.820312 69.109375 951.304688 68.332031 C 950.785156 67.558594 950.304688 66.757812 949.863281 65.933594 C 949.425781 65.113281 949.027344 64.269531 948.667969 63.40625 C 948.3125 62.542969 947.996094 61.667969 947.726562 60.773438 C 947.457031 59.878906 947.230469 58.976562 947.046875 58.058594 C 946.867188 57.144531 946.730469 56.222656 946.636719 55.292969 C 946.546875 54.363281 946.5 53.433594 946.5 52.5 C 946.5 51.566406 946.546875 50.636719 946.636719 49.707031 C 946.730469 48.777344 946.867188 47.855469 947.046875 46.941406 C 947.230469 46.023438 947.457031 45.121094 947.726562 44.226562 C 947.996094 43.332031 948.3125 42.457031 948.667969 41.59375 C 949.027344 40.730469 949.425781 39.886719 949.863281 39.066406 C 950.304688 38.242188 950.785156 37.441406 951.304688 36.667969 C 951.820312 35.890625 952.375 35.140625 952.96875 34.417969 C 953.5625 33.699219 954.1875 33.007812 954.847656 32.347656 C 955.507812 31.6875 956.199219 31.0625 956.917969 30.46875 C 957.640625 29.878906 958.390625 29.320312 959.164062 28.804688 C 959.941406 28.285156 960.742188 27.804688 961.566406 27.367188 C 962.386719 26.925781 963.230469 26.527344 964.09375 26.167969 C 964.957031 25.8125 965.832031 25.5 966.726562 25.226562 C 967.621094 24.957031 968.523438 24.730469 969.441406 24.546875 C 970.355469 24.367188 971.277344 24.230469 972.207031 24.136719 C 973.136719 24.046875 974.066406 24 975 24 C 975.933594 24 976.863281 24.046875 977.792969 24.136719 C 978.722656 24.230469 979.644531 24.367188 980.558594 24.546875 C 981.476562 24.730469 982.378906 24.957031 983.273438 25.226562 C 984.167969 25.5 985.042969 25.8125 985.90625 26.167969 C 986.769531 26.527344 987.613281 26.925781 988.433594 27.367188 C 989.257812 27.804688 990.058594 28.285156 990.832031 28.804688 C 991.609375 29.320312 992.359375 29.878906 993.082031 30.46875 C 993.800781 31.0625 994.492188 31.6875 995.152344 32.347656 C 995.8125 33.007812 996.4375 33.699219 997.03125 34.417969 C 997.621094 35.140625 998.179688 35.890625 998.695312 36.667969 C 999.214844 37.441406 999.695312 38.242188 1000.132812 39.066406 C 1000.574219 39.886719 1000.972656 40.730469 1001.332031 41.59375 C 1001.6875 42.457031 1002 43.332031 1002.273438 44.226562 C 1002.542969 45.121094 1002.769531 46.023438 1002.953125 46.941406 C 1003.132812 47.855469 1003.269531 48.777344 1003.363281 49.707031 C 1003.453125 50.636719 1003.5 51.566406 1003.5 52.5 Z M 1003.5 52.5 " fill-opacity="0.12" fill-rule="nonzero"/><path fill="#ffffff" d="M 91.5 30 C 91.5 30.199219 91.460938 30.390625 91.386719 30.574219 C 91.308594 30.757812 91.203125 30.921875 91.0625 31.0625 C 90.921875 31.203125 90.757812 31.308594 90.574219 31.386719 C 90.390625 31.460938 90.199219 31.5 90 31.5 C 89.800781 31.5 89.609375 31.460938 89.425781 31.386719 C 89.242188 31.308594 89.078125 31.203125 88.9375 31.0625 C 88.796875 30.921875 88.691406 30.757812 88.613281 30.574219 C 88.539062 30.390625 88.5 30.199219 88.5 30 C 88.5 29.800781 88.539062 29.609375 88.613281 29.425781 C 88.691406 29.242188 88.796875 29.078125 88.9375 28.9375 C 89.078125 28.796875 89.242188 28.691406 89.425781 28.613281 C 89.609375 28.539062 89.800781 28.5 90 28.5 C 90.199219 28.5 90.390625 28.539062 90.574219 28.613281 C 90.757812 28.691406 90.921875 28.796875 91.0625 28.9375 C 91.203125 29.078125 91.308594 29.242188 91.386719 29.425781 C 91.460938 29.609375 91.5 29.800781 91.5 30 Z M 91.5 30 " fill-opacity="0.3" fill-rule="nonzero"/><path fill="#ffffff" d="M 166.125 60 C 166.125 60.148438 166.097656 60.292969 166.039062 60.429688 C 165.980469 60.566406 165.902344 60.691406 165.796875 60.796875 C 165.691406 60.902344 165.566406 60.980469 165.429688 61.039062 C 165.292969 61.097656 165.148438 61.125 165 61.125 C 164.851562 61.125 164.707031 61.097656 164.570312 61.039062 C 164.429688 60.980469 164.308594 60.902344 164.203125 60.796875 C 164.097656 60.691406 164.019531 60.566406 163.960938 60.429688 C 163.902344 60.292969 163.875 60.148438 163.875 60 C 163.875 59.851562 163.902344 59.707031 163.960938 59.570312 C 164.019531 59.433594 164.097656 59.308594 164.203125 59.203125 C 164.308594 59.097656 164.429688 59.019531 164.570312 58.960938 C 164.707031 58.902344 164.851562 58.875 165 58.875 C 165.148438 58.875 165.292969 58.902344 165.429688 58.960938 C 165.566406 59.019531 165.691406 59.097656 165.796875 59.203125 C 165.902344 59.308594 165.980469 59.433594 166.039062 59.570312 C 166.097656 59.707031 166.125 59.851562 166.125 60 Z M 166.125 60 " fill-opacity="0.25" fill-rule="nonzero"/><path fill="#ffffff" d="M 316.5 26.25 C 316.5 26.449219 316.460938 26.640625 316.386719 26.824219 C 316.308594 27.007812 316.203125 27.171875 316.0625 27.3125 C 315.921875 27.453125 315.757812 27.558594 315.574219 27.636719 C 315.390625 27.710938 315.199219 27.75 315 27.75 C 314.800781 27.75 314.609375 27.710938 314.425781 27.636719 C 314.242188 27.558594 314.078125 27.453125 313.9375 27.3125 C 313.796875 27.171875 313.691406 27.007812 313.613281 26.824219 C 313.539062 26.640625 313.5 26.449219 313.5 26.25 C 313.5 26.050781 313.539062 25.859375 313.613281 25.675781 C 313.691406 25.492188 313.796875 25.328125 313.9375 25.1875 C 314.078125 25.046875 314.242188 24.941406 314.425781 24.863281 C 314.609375 24.789062 314.800781 24.75 315 24.75 C 315.199219 24.75 315.390625 24.789062 315.574219 24.863281 C 315.757812 24.941406 315.921875 25.046875 316.0625 25.1875 C 316.203125 25.328125 316.308594 25.492188 316.386719 25.675781 C 316.460938 25.859375 316.5 26.050781 316.5 26.25 Z M 316.5 26.25 " fill-opacity="0.3" fill-rule="nonzero"/><path fill="#ffffff" d="M 526.125 45 C 526.125 45.148438 526.097656 45.292969 526.039062 45.429688 C 525.980469 45.566406 525.902344 45.691406 525.796875 45.796875 C 525.691406 45.902344 525.566406 45.980469 525.429688 46.039062 C 525.292969 46.097656 525.148438 46.125 525 46.125 C 524.851562 46.125 524.707031 46.097656 524.570312 46.039062 C 524.429688 45.980469 524.308594 45.902344 524.203125 45.796875 C 524.097656 45.691406 524.019531 45.566406 523.960938 45.429688 C 523.902344 45.292969 523.875 45.148438 523.875 45 C 523.875 44.851562 523.902344 44.707031 523.960938 44.570312 C 524.019531 44.433594 524.097656 44.308594 524.203125 44.203125 C 524.308594 44.097656 524.429688 44.019531 524.570312 43.960938 C 524.707031 43.902344 524.851562 43.875 525 43.875 C 525.148438 43.875 525.292969 43.902344 525.429688 43.960938 C 525.566406 44.019531 525.691406 44.097656 525.796875 44.203125 C 525.902344 44.308594 525.980469 44.433594 526.039062 44.570312 C 526.097656 44.707031 526.125 44.851562 526.125 45 Z M 526.125 45 " fill-opacity="0.2" fill-rule="nonzero"/><path fill="#ffffff" d="M 714 22.5 C 714 22.699219 713.960938 22.890625 713.886719 23.074219 C 713.808594 23.257812 713.703125 23.421875 713.5625 23.5625 C 713.417969 23.703125 713.257812 23.808594 713.074219 23.886719 C 712.890625 23.960938 712.699219 24 712.5 24 C 712.300781 24 712.109375 23.960938 711.925781 23.886719 C 711.742188 23.808594 711.578125 23.703125 711.4375 23.5625 C 711.296875 23.421875 711.191406 23.257812 711.113281 23.074219 C 711.039062 22.890625 711 22.699219 711 22.5 C 711 22.300781 711.039062 22.109375 711.113281 21.925781 C 711.191406 21.742188 711.296875 21.578125 711.4375 21.4375 C 711.578125 21.296875 711.742188 21.191406 711.925781 21.113281 C 712.109375 21.039062 712.300781 21 712.5 21 C 712.699219 21 712.890625 21.039062 713.074219 21.113281 C 713.257812 21.191406 713.417969 21.296875 713.5625 21.4375 C 713.703125 21.578125 713.808594 21.742188 713.886719 21.925781 C 713.960938 22.109375 714 22.300781 714 22.5 Z M 714 22.5 " fill-opacity="0.3" fill-rule="nonzero"/><path fill="#ffffff" d="M 811.125 67.5 C 811.125 67.648438 811.097656 67.792969 811.039062 67.929688 C 810.980469 68.066406 810.902344 68.191406 810.796875 68.296875 C 810.691406 68.402344 810.566406 68.480469 810.429688 68.539062 C 810.292969 68.597656 810.148438 68.625 810 68.625 C 809.851562 68.625 809.707031 68.597656 809.570312 68.539062 C 809.429688 68.480469 809.308594 68.402344 809.203125 68.296875 C 809.097656 68.191406 809.015625 68.066406 808.960938 67.929688 C 808.902344 67.792969 808.875 67.648438 808.875 67.5 C 808.875 67.351562 808.902344 67.207031 808.960938 67.070312 C 809.015625 66.933594 809.097656 66.808594 809.203125 66.703125 C 809.308594 66.597656 809.429688 66.519531 809.570312 66.460938 C 809.707031 66.402344 809.851562 66.375 810 66.375 C 810.148438 66.375 810.292969 66.402344 810.429688 66.460938 C 810.566406 66.519531 810.691406 66.597656 810.796875 66.703125 C 810.902344 66.808594 810.980469 66.933594 811.039062 67.070312 C 811.097656 67.207031 811.125 67.351562 811.125 67.5 Z M 811.125 67.5 " fill-opacity="0.2" fill-rule="nonzero"/><path fill="#ffffff" d="M 1126.5 37.5 C 1126.5 37.699219 1126.460938 37.890625 1126.386719 38.074219 C 1126.308594 38.257812 1126.199219 38.421875 1126.058594 38.5625 C 1125.917969 38.703125 1125.757812 38.808594 1125.574219 38.886719 C 1125.390625 38.960938 1125.199219 39 1125 39 C 1124.800781 39 1124.609375 38.960938 1124.425781 38.886719 C 1124.242188 38.808594 1124.078125 38.703125 1123.9375 38.5625 C 1123.796875 38.421875 1123.691406 38.257812 1123.613281 38.074219 C 1123.539062 37.890625 1123.5 37.699219 1123.5 37.5 C 1123.5 37.300781 1123.539062 37.109375 1123.613281 36.925781 C 1123.691406 36.742188 1123.796875 36.578125 1123.9375 36.4375 C 1124.078125 36.296875 1124.242188 36.191406 1124.425781 36.113281 C 1124.609375 36.039062 1124.800781 36 1125 36 C 1125.199219 36 1125.390625 36.039062 1125.574219 36.113281 C 1125.757812 36.191406 1125.917969 36.296875 1126.058594 36.4375 C 1126.199219 36.578125 1126.308594 36.742188 1126.386719 36.925781 C 1126.460938 37.109375 1126.5 37.300781 1126.5 37.5 Z M 1126.5 37.5 " fill-opacity="0.25" fill-rule="nonzero"/><path fill="#ffffff" d="M 46.125 90 C 46.125 90.148438 46.097656 90.292969 46.039062 90.429688 C 45.980469 90.566406 45.902344 90.691406 45.796875 90.796875 C 45.691406 90.902344 45.566406 90.980469 45.429688 91.039062 C 45.292969 91.097656 45.148438 91.125 45 91.125 C 44.851562 91.125 44.707031 91.097656 44.570312 91.039062 C 44.433594 90.980469 44.308594 90.902344 44.203125 90.796875 C 44.097656 90.691406 44.019531 90.566406 43.960938 90.429688 C 43.902344 90.292969 43.875 90.148438 43.875 90 C 43.875 89.851562 43.902344 89.707031 43.960938 89.570312 C 44.019531 89.433594 44.097656 89.308594 44.203125 89.203125 C 44.308594 89.097656 44.433594 89.019531 44.570312 88.960938 C 44.707031 88.902344 44.851562 88.875 45 88.875 C 45.148438 88.875 45.292969 88.902344 45.429688 88.960938 C 45.566406 89.019531 45.691406 89.097656 45.796875 89.203125 C 45.902344 89.308594 45.980469 89.433594 46.039062 89.570312 C 46.097656 89.707031 46.125 89.851562 46.125 90 Z M 46.125 90 " fill-opacity="0.2" fill-rule="nonzero"/><g clip-path="url(#758e1e7c4b)"><g clip-path="url(#7aa8316b2d)"><path fill="url(#1eff7c317c)" d="M 0 132.5 L 0 225 L 1200 225 L 1200 132.5 Z M 0 132.5 " fill-rule="nonzero"/></g></g><path fill="#026a52" d="M 0 187.5 C 150 162.5 312.5 161.25 487.5 183.75 C 662.5 206.25 825 202.5 975 172.5 C 1125 142.5 1200 145 1200 180 L 1200 225 L 0 225 Z M 0 187.5 " fill-opacity="1" fill-rule="nonzero"/><g clip-path="url(#d264fecf0c)"><path fill="#000000" d="M 199.390625 112.519531 C 199.414062 112.6875 198.8125 112.773438 199.03125 112.992188 C 199.058594 113.019531 199.542969 112.714844 199.71875 112.671875 C 200.753906 112.394531 201.617188 112.75 202.5625 113.210938 C 203.925781 113.871094 204.886719 115.253906 205.066406 116.761719 C 205.1875 117.765625 204.734375 118.125 204.53125 118.886719 C 204.179688 120.214844 204.46875 121.375 203.769531 122.628906 C 203.679688 122.792969 203.214844 123.277344 203.214844 123.363281 C 203.214844 123.445312 203.667969 123.796875 203.773438 123.972656 C 203.960938 124.285156 203.984375 124.75 204.273438 125.015625 C 204.753906 125.457031 206.308594 125.84375 207.039062 126.402344 C 207.410156 126.691406 207.792969 127.15625 208.015625 127.5625 C 209.015625 129.339844 209.539062 131.765625 210.519531 133.605469 C 210.542969 133.890625 209.546875 134.367188 209.257812 134.441406 C 209.480469 135.050781 209.886719 135.609375 210.148438 136.222656 C 210.578125 137.230469 210.789062 138.3125 211.191406 139.332031 C 211.40625 139.878906 211.78125 140.390625 211.878906 140.957031 C 212.960938 139.484375 213.304688 137.585938 214.195312 135.980469 C 214.445312 135.527344 215.378906 134.371094 215.429688 134 C 215.484375 133.585938 214.976562 133.519531 214.972656 133.203125 C 214.96875 132.96875 215.226562 132.757812 215.261719 132.5625 C 215.308594 132.316406 215.175781 131.949219 215.234375 131.566406 C 215.367188 130.726562 216.367188 128.335938 216.847656 127.609375 C 217.332031 126.878906 217.738281 126.746094 217.800781 126.539062 C 217.914062 126.167969 217.671875 125.871094 217.722656 125.53125 C 217.769531 125.253906 218.179688 124.832031 218.175781 124.789062 C 218.171875 124.628906 217.601562 124.621094 217.585938 124.375 C 218.714844 124.625 218.640625 123.304688 219.03125 122.558594 C 219.234375 122.171875 220.023438 121.488281 220.0625 121.328125 C 220.125 121.089844 219.589844 120.289062 219.597656 119.808594 C 219.605469 119.53125 219.789062 119.378906 219.808594 119.207031 C 219.84375 118.867188 219.632812 118.234375 219.636719 117.832031 C 219.648438 116.160156 220.378906 114.597656 221.902344 113.808594 C 222.773438 113.359375 222.835938 113.621094 223.574219 113.558594 C 224.414062 113.488281 224.339844 113.113281 225.550781 113.414062 C 228.316406 114.105469 228.53125 116.386719 228.890625 118.738281 C 228.921875 118.941406 229.105469 119.082031 229.128906 119.339844 C 229.179688 119.839844 228.699219 120.609375 228.773438 120.863281 C 228.8125 121 230.617188 122.480469 230.785156 122.894531 L 230.308594 122.894531 C 230.707031 123.644531 230.703125 124.9375 231.855469 124.851562 C 231.886719 125.5 230.714844 124.804688 230.667969 124.851562 C 230.777344 125.179688 230.757812 125.59375 230.859375 125.898438 C 230.992188 126.273438 231.449219 126.46875 231.730469 126.808594 C 233.019531 128.339844 233.425781 130.585938 233.644531 132.484375 C 233.679688 132.765625 233.929688 132.960938 233.878906 133.3125 C 233.808594 133.820312 233.023438 133.824219 233.046875 134.375 C 233.066406 134.8125 233.917969 136.542969 234.105469 137.242188 C 234.585938 139.039062 234.71875 140.9375 235.1875 142.742188 L 238.496094 137.089844 C 238.613281 136.75 238.34375 136.828125 238.15625 136.644531 C 237.9375 136.433594 237.273438 135.882812 237.34375 135.601562 C 238.597656 133.828125 239.367188 131.566406 240.5625 129.792969 C 241.027344 129.097656 241.359375 128.757812 242.121094 128.382812 C 242.683594 128.109375 243.847656 127.867188 244.261719 127.585938 C 244.367188 127.511719 244.535156 127.140625 244.554688 127.015625 C 244.699219 126.207031 244.136719 125.976562 243.773438 125.363281 C 242.953125 123.964844 243.503906 123.582031 243.378906 122.203125 C 243.363281 122.035156 243.082031 120.625 242.917969 120.824219 L 242.796875 121.296875 C 242.28125 119.945312 242.871094 118.625 243.75 117.570312 C 244.988281 116.085938 247.847656 115.023438 249.695312 115.847656 L 249.753906 115.496094 C 250.125 115.527344 250.574219 116.359375 250.671875 116.414062 C 250.8125 116.496094 251.304688 116.421875 251.601562 116.496094 C 251.867188 116.5625 252.632812 117.027344 252.074219 117.089844 C 252.628906 117.742188 253.191406 118.882812 253.238281 119.734375 C 253.296875 120.796875 252.335938 123.070312 251.660156 123.90625 C 251.144531 124.542969 250.378906 124.789062 250.289062 125.679688 C 251.613281 125.820312 251.328125 127.164062 251.964844 127.863281 C 252.539062 128.496094 253.863281 128.953125 254.5625 129.542969 C 255.207031 130.09375 255.539062 130.898438 255.902344 131.644531 C 256.84375 133.578125 257.605469 135.628906 258.5 137.585938 C 258.527344 138.003906 256.945312 138.566406 256.945312 138.664062 C 257.257812 139.53125 257.445312 140.464844 257.546875 141.382812 C 257.726562 143.042969 257.636719 144.828125 257.789062 146.472656 C 257.933594 148.0625 259.039062 149.707031 257.429688 150.980469 C 257.121094 151.226562 255.691406 152.097656 255.636719 151.449219 C 255.605469 151.085938 255.929688 151.023438 256.054688 150.792969 C 256.214844 150.484375 256.324219 149.355469 256.121094 149.140625 C 255.925781 148.9375 255.917969 149.1875 255.882812 149.316406 C 255.769531 149.6875 255.699219 150.304688 255.289062 150.511719 C 254.4375 150.9375 255.121094 148.289062 255.226562 147.953125 C 255.398438 147.40625 255.863281 146.8125 255.855469 146.273438 C 255.816406 144.300781 254.386719 141.851562 254.074219 139.867188 L 253.625 139.542969 C 253.679688 141.1875 254.148438 142.792969 253.980469 144.460938 C 253.914062 145.101562 253.570312 145.714844 253.503906 146.359375 C 253.433594 147.078125 253.527344 147.863281 253.605469 148.582031 C 253.527344 148.882812 253.054688 148.980469 253.027344 149.105469 C 252.753906 150.320312 252.925781 152.289062 252.914062 153.589844 C 252.902344 154.949219 252.835938 156.347656 252.914062 157.730469 C 252.980469 158.996094 253.703125 159.589844 251.964844 160.109375 C 251.792969 160.160156 251.386719 160.140625 251.363281 160.160156 C 251.335938 160.183594 251.363281 160.710938 251.332031 160.898438 C 251.152344 161.925781 250.128906 165.546875 250.320312 166.234375 C 250.378906 166.441406 250.753906 167.351562 250.863281 167.589844 C 251.117188 168.125 252.261719 169.449219 251.554688 170.007812 C 251.207031 170.277344 248.0625 170.324219 247.636719 170.089844 C 247.402344 169.960938 247.371094 169.480469 247.363281 169.203125 C 247.320312 167.226562 247.960938 165.421875 247.917969 163.53125 C 247.898438 162.84375 247.726562 161.984375 247.675781 161.285156 C 247.597656 160.242188 248.03125 159.847656 246.839844 159.367188 L 246.71875 151.632812 L 246.136719 153.960938 C 246.125 154.535156 246.449219 155.382812 246.339844 155.925781 C 246.210938 156.605469 245.230469 157.851562 245.167969 158.316406 C 245.125 158.648438 245.136719 159.730469 245.253906 160.015625 C 245.339844 160.214844 245.804688 160.367188 246.007812 160.578125 C 247.179688 161.789062 246.289062 162.863281 246.257812 164.144531 C 246.238281 164.976562 246.578125 165.773438 246.453125 166.707031 C 246.042969 169.75 242.578125 169.65625 242.570312 166.394531 C 242.570312 165.140625 243.398438 162.929688 243.25 161.785156 C 243.234375 161.679688 242.339844 159.996094 242.261719 159.921875 C 242.089844 159.765625 241.789062 159.796875 241.5625 159.671875 C 240.796875 159.246094 239.585938 155.980469 239.730469 155.035156 C 239.839844 154.335938 240.0625 153.570312 240.191406 152.769531 C 240.429688 151.300781 240.675781 149.835938 240.898438 148.363281 C 240.910156 147.785156 240.097656 147.972656 240.078125 147.308594 C 240.417969 144.484375 240.90625 141.671875 241.128906 138.832031 L 240.105469 140.359375 L 236.914062 144.523438 C 236.648438 144.984375 237.132812 145.589844 237.085938 146 C 237.082031 146.054688 236.679688 146.730469 236.605469 146.828125 C 236.34375 147.1875 235.242188 148.226562 234.816406 148.136719 C 234.367188 148.042969 234.542969 147.625 234.441406 147.507812 C 234.398438 147.449219 234.160156 147.46875 234.046875 147.367188 C 233.863281 147.210938 233.460938 146.746094 233.394531 146.535156 C 233.054688 146.84375 233.070312 147.320312 232.445312 147.242188 C 232.535156 146.851562 232.335938 146.464844 232.324219 146.117188 C 232.320312 145.964844 232.484375 145.621094 232.445312 145.585938 C 232.40625 145.542969 231.96875 145.644531 231.988281 145.3125 C 232.039062 144.378906 232.863281 144.277344 233.070312 143.777344 C 233.355469 143.082031 232.875 142.214844 232.621094 141.558594 C 232.03125 140.050781 231.136719 138.640625 230.777344 137.050781 C 230.65625 137.261719 229.765625 137.730469 229.734375 137.785156 C 229.425781 138.316406 230.332031 138.976562 230.367188 139.539062 L 233.578125 152.339844 C 233.445312 152.625 232.328125 152.785156 232.230469 152.945312 C 232.113281 153.136719 232.332031 153.628906 232.140625 153.769531 C 231.609375 154.144531 229.789062 154.238281 229.117188 154.230469 C 229.183594 155.40625 229.117188 156.375 228.765625 157.492188 C 228.410156 158.625 227.542969 159.535156 227.984375 160.75 C 228.425781 161.964844 228.578125 162.605469 228.800781 163.609375 C 228.996094 164.5 229.03125 165.105469 228.726562 165.984375 C 228.167969 167.585938 226.296875 167.789062 225.527344 166.277344 C 224.933594 165.113281 225.257812 163.300781 225.195312 161.984375 C 225.15625 161.050781 224.707031 160.3125 225.132812 159.324219 C 225.230469 159.09375 225.425781 158.980469 225.488281 158.847656 C 225.558594 158.691406 225.242188 155.886719 225.183594 155.484375 C 225.152344 155.289062 224.894531 154.214844 224.835938 154.082031 C 224.742188 153.875 224.328125 153.875 224.121094 153.875 C 224.113281 154.085938 224.148438 154.304688 224.109375 154.515625 C 223.644531 156.976562 223.617188 159.347656 223.523438 161.867188 C 223.457031 163.574219 223.773438 164.695312 223.890625 166.25 C 223.925781 166.742188 223.957031 168.832031 223.816406 169.171875 C 223.675781 169.511719 223.714844 169.414062 223.574219 169.5 C 223.210938 169.722656 220.054688 169.707031 219.71875 169.457031 C 219.53125 169.3125 219.570312 168.652344 219.628906 168.417969 C 219.742188 167.984375 220.503906 167.515625 220.601562 167.148438 C 220.648438 166.980469 220.523438 166.785156 220.601562 166.546875 C 220.667969 166.335938 220.910156 166.210938 220.96875 166.074219 C 221.398438 165.035156 219.957031 160.566406 219.84375 159.027344 C 219.707031 157.195312 220.089844 155.351562 219.960938 153.519531 C 219.382812 153.523438 218.703125 153.488281 218.144531 153.375 C 217.863281 153.316406 217.691406 153.136719 217.484375 153.082031 C 216.292969 152.769531 215.019531 152.535156 214.15625 151.550781 C 215.488281 147.503906 216.425781 143.097656 218.121094 139.1875 C 218.347656 138.660156 219.015625 137.851562 218.894531 137.367188 C 218.875 137.285156 218.40625 137.132812 218.230469 136.941406 C 217.96875 136.65625 218.011719 136.292969 217.703125 136.105469 C 216.722656 138.425781 214.863281 140.261719 213.710938 142.5 C 213.367188 143.207031 214.300781 143.90625 214.351562 144.480469 C 214.398438 145.054688 214.097656 144.773438 214.035156 144.957031 C 213.972656 145.144531 214.035156 145.441406 214.011719 145.464844 C 213.90625 145.574219 213.339844 145.335938 213.3125 145.355469 C 213.273438 145.382812 213.238281 145.679688 213.058594 145.769531 C 212.859375 145.871094 212.671875 145.683594 212.472656 145.757812 C 211.871094 145.992188 211.175781 147.246094 210.632812 146.519531 L 209.964844 144.871094 C 209.734375 145.035156 209.566406 145.167969 209.253906 145.109375 C 209.398438 144.757812 209.25 144.191406 209.304688 143.921875 C 209.375 143.59375 210.074219 142.660156 210.0625 142.464844 C 210.046875 142.148438 207.914062 138.949219 207.566406 138.316406 C 207.140625 137.535156 206.730469 136.71875 206.457031 135.867188 C 206.515625 136.664062 206.457031 137.5 206.515625 138.296875 C 206.675781 140.464844 206.699219 142.671875 206.871094 144.816406 C 206.90625 145.261719 207.34375 146.109375 207.054688 146.535156 C 206.84375 146.851562 206.371094 146.425781 206.390625 147.179688 C 206.445312 149.242188 206.949219 150.5625 207.222656 152.402344 C 207.339844 153.199219 206.976562 153.65625 206.984375 154.175781 C 206.992188 154.695312 207.21875 154.671875 207.222656 154.882812 C 207.222656 154.972656 206.863281 156.460938 206.820312 156.609375 C 206.707031 156.980469 206.175781 157.242188 205.988281 157.558594 C 205.800781 157.875 205.375 159.164062 205.375 159.265625 C 205.714844 161.320312 206.847656 163.378906 206.457031 165.492188 C 206.070312 167.613281 203.757812 168.378906 202.820312 166.140625 C 202.277344 164.835938 202.742188 163.746094 202.707031 162.472656 C 202.679688 161.453125 202.183594 160.515625 202.375 159.414062 C 202.476562 158.832031 203.109375 158.234375 202.671875 157.582031 C 202.617188 157.503906 202.414062 157.484375 202.34375 157.382812 C 201.882812 156.671875 201.078125 155.433594 200.949219 154.621094 C 200.738281 153.292969 201.296875 151.472656 200.90625 150.042969 L 200.683594 149.140625 C 200.601562 150.378906 200.480469 151.636719 200.558594 152.878906 C 200.628906 154.019531 200.996094 155.128906 200.917969 156.308594 C 200.875 156.945312 200.601562 157.585938 200.667969 158.25 L 199.84375 158.582031 C 199.996094 160.488281 199.566406 162.679688 200.054688 164.515625 C 200.402344 165.820312 200.535156 166.003906 200.679688 167.445312 C 200.769531 168.320312 201.371094 169.5 200.148438 169.640625 C 199.632812 169.699219 196.660156 169.71875 196.453125 169.40625 C 196.019531 168.75 196.941406 167.703125 197.167969 167.148438 C 198.03125 165.042969 196.960938 163.320312 196.429688 161.25 C 196.328125 160.839844 196.039062 158.953125 195.933594 158.804688 C 195.839844 158.671875 194.4375 158.78125 194.277344 158.304688 C 194.152344 157.945312 194.25 156.246094 194.25 155.710938 C 194.25 154.027344 194.289062 152.328125 194.25 150.628906 C 194.21875 149.167969 194.171875 147.714844 194.140625 146.257812 C 192.808594 145.765625 193.589844 144.03125 193.660156 142.921875 C 193.695312 142.371094 193.625 141.8125 193.660156 141.261719 C 193.789062 139.269531 193.980469 137.269531 194.136719 135.28125 L 193.609375 135.878906 C 193.4375 137.773438 190.507812 141.628906 190.695312 143.261719 C 190.726562 143.539062 190.902344 143.785156 190.925781 144.101562 C 190.964844 144.578125 191.015625 146.546875 190.753906 146.777344 C 190.488281 147.011719 190.226562 146.675781 190.125 146.441406 C 190.042969 146.261719 189.953125 144.953125 189.628906 145.539062 C 189.53125 145.710938 189.367188 146.386719 189.402344 146.566406 C 189.515625 147.128906 190.617188 147.417969 190.027344 148.191406 C 189.855469 148.414062 189.128906 147.984375 188.9375 147.859375 C 187.136719 146.671875 188.433594 144.664062 188.75 143.125 C 189.171875 141.070312 189.273438 138.921875 189.863281 136.882812 C 189.992188 136.4375 190.820312 134.640625 190.8125 134.511719 C 190.804688 134.433594 189.671875 134 189.75 133.46875 C 190.675781 131.699219 191.320312 129.765625 192.246094 128.007812 C 192.6875 127.167969 192.945312 126.609375 193.816406 126.132812 C 194.320312 125.855469 196.109375 125.328125 196.363281 125.058594 C 196.785156 124.609375 196.617188 123.027344 198.054688 123.1875 C 198.175781 122.972656 197.753906 121.601562 197.6875 121.546875 C 197.617188 121.496094 197.351562 121.554688 197.199219 121.5 C 196.453125 121.226562 195.878906 119.890625 196.058594 119.128906 C 196.117188 118.890625 196.363281 118.734375 196.394531 118.503906 C 196.488281 117.773438 196.050781 116.707031 196.285156 115.558594 C 196.484375 114.574219 196.925781 113.875 197.828125 113.421875 C 198.015625 113.328125 198.257812 113.402344 198.386719 113.332031 C 198.539062 113.246094 198.875 112.367188 199.367188 112.53125 Z M 228.175781 121.523438 C 227.484375 121.300781 226.492188 123.414062 226.746094 123.65625 C 226.792969 123.703125 227.835938 123.648438 227.820312 124.246094 L 228.054688 123.179688 L 227.640625 123.535156 C 227.511719 123.242188 227.972656 123.085938 228.097656 122.6875 C 228.214844 122.304688 228.175781 121.914062 228.171875 121.523438 Z M 228.175781 121.523438 " fill-opacity="1" fill-rule="nonzero"/></g><g clip-path="url(#319c9268c3)"><path fill="#000000" d="M 794.691406 169.082031 C 794.722656 169.203125 794.824219 169.253906 794.945312 169.285156 L 794.945312 169.34375 C 794.640625 169.425781 794.589844 169.488281 794.195312 169.488281 C 793.992188 169.488281 794.308594 169.273438 793.464844 169.367188 C 793.058594 169.417969 793.375 169.546875 792.621094 169.367188 C 792.277344 169.273438 792.035156 169.285156 791.921875 169.191406 C 791.863281 169.132812 791.851562 169.113281 791.761719 169.0625 C 790.960938 168.574219 790.5625 169.234375 790.675781 170.035156 C 790.835938 171.167969 790.332031 172.964844 791.515625 173.644531 C 791.6875 173.753906 791.992188 173.855469 792.21875 173.855469 C 792.238281 173.855469 792.429688 173.652344 792.472656 173.613281 C 792.9375 173.054688 792.867188 172.515625 793.050781 172.164062 C 793.078125 172.101562 793.121094 172.050781 793.152344 171.992188 C 793.230469 171.816406 793.171875 171.796875 793.300781 171.625 C 793.503906 171.382812 793.273438 171.492188 793.546875 171.34375 C 793.628906 171.292969 793.628906 171.300781 793.636719 171.179688 C 794.085938 171.179688 794.417969 171.210938 794.894531 171.199219 C 795.066406 171.199219 795.332031 171.167969 795.503906 171.140625 C 795.6875 171.109375 795.890625 171.089844 796.082031 171.058594 C 796.519531 170.976562 796.804688 170.84375 797.078125 170.5625 L 797.300781 170.265625 C 797.453125 169.972656 797.441406 169.558594 797.390625 169.234375 C 797.363281 169.0625 797.351562 169.03125 797.460938 168.910156 C 798.039062 168.308594 797.835938 168.472656 797.636719 167.824219 C 797.542969 167.53125 797.542969 167.09375 797.542969 166.78125 C 797.542969 166.648438 797.796875 166.636719 797.949219 166.636719 C 797.960938 166.882812 798.234375 167.09375 798.40625 167.195312 C 798.691406 167.359375 798.738281 167.492188 798.945312 167.703125 C 799.015625 167.773438 799.136719 167.914062 799.226562 167.925781 C 799.308594 167.9375 799.554688 167.835938 799.632812 167.835938 C 799.765625 167.84375 800.25 168.117188 800.25 168.261719 C 800.25 168.433594 799.867188 168.847656 799.785156 169.769531 L 799.703125 170.429688 C 799.695312 170.511719 799.695312 170.589844 799.695312 170.683594 C 799.695312 171.027344 799.726562 171.300781 799.726562 171.667969 C 799.726562 171.867188 799.226562 172.292969 799.226562 172.722656 C 799.226562 173.035156 799.492188 173.144531 799.714844 173.246094 L 801.105469 173.894531 C 801.5625 174.128906 802.371094 174.179688 802.890625 174.070312 C 803.023438 174.039062 803.082031 173.976562 803.132812 173.875 C 803.183594 173.753906 803.101562 173.683594 803.050781 173.582031 C 802.921875 173.320312 802.6875 173.246094 802.503906 172.996094 L 802.363281 172.902344 C 802.25 172.820312 802.3125 172.8125 802.199219 172.75 C 802.167969 172.730469 802.191406 172.75 802.117188 172.710938 C 801.917969 172.578125 801.742188 171.929688 801.5 171.867188 C 801.5 171.585938 801.46875 171.535156 801.5625 171.292969 C 801.59375 171.230469 801.59375 171.1875 801.59375 171.089844 C 801.59375 170.652344 801.683594 170.804688 801.722656 170.550781 C 801.753906 170.398438 801.703125 170.5 801.703125 170.359375 C 801.703125 170.257812 801.824219 169.890625 801.84375 169.769531 C 801.894531 169.558594 801.925781 169.355469 801.96875 169.164062 C 802.242188 167.84375 802.273438 167.378906 801.449219 166.273438 L 801.125 165.847656 C 801.175781 165.777344 801.265625 165.714844 801.265625 165.644531 C 801.265625 165.585938 801.136719 165.503906 801.074219 165.433594 C 800.878906 165.230469 800.667969 165.25 800.527344 165.136719 C 800.484375 165.097656 800.375 164.964844 800.3125 164.914062 C 800.121094 164.710938 799.542969 164.277344 799.429688 164.074219 C 799.523438 164.050781 799.625 164.023438 799.695312 163.980469 C 799.671875 163.871094 799.644531 163.757812 799.601562 163.648438 C 799.410156 163.183594 799.371094 163.394531 799.917969 162.664062 C 800.324219 162.117188 801.035156 161.183594 801.183594 160.527344 C 801.359375 160.527344 801.824219 160.746094 802.089844 160.839844 C 802.242188 160.890625 802.390625 160.953125 802.566406 160.984375 C 802.695312 161.003906 802.695312 160.992188 802.808594 161.023438 C 803.101562 161.125 802.960938 161.101562 803.226562 161.050781 L 803.660156 161.367188 C 803.742188 161.417969 803.804688 161.457031 803.882812 161.519531 C 804.199219 161.75 804.503906 161.945312 804.878906 162.066406 C 804.980469 162.105469 805.070312 162.15625 805.171875 162.179688 C 805.171875 162.453125 804.867188 162.929688 805.222656 163.121094 C 805.304688 163.160156 805.296875 163.128906 805.386719 163.160156 C 805.464844 163.191406 805.457031 163.210938 805.519531 163.261719 C 805.539062 163.242188 805.558594 163.242188 805.589844 163.210938 C 805.652344 163.171875 805.621094 163.160156 805.699219 163.140625 C 805.800781 163.351562 805.671875 163.261719 805.945312 163.425781 C 806.003906 163.453125 806.230469 163.609375 806.277344 163.609375 C 806.359375 163.609375 806.371094 163.546875 806.453125 163.546875 C 806.511719 163.546875 806.582031 163.636719 806.683594 163.636719 C 806.886719 163.636719 806.917969 163.382812 806.917969 163.234375 C 806.917969 163.078125 806.867188 163.160156 806.9375 162.988281 C 806.976562 162.898438 807.007812 162.828125 807.070312 162.765625 C 807.273438 162.5625 808.257812 162.289062 808.570312 162.167969 C 809.046875 161.984375 809.808594 161.703125 810.238281 161.417969 C 810.316406 161.367188 810.347656 161.316406 810.46875 161.308594 C 810.570312 161.660156 811.015625 161.527344 811.191406 161.386719 L 812.023438 160.707031 C 812.152344 160.546875 812.203125 160.363281 812.425781 160.726562 C 812.558594 160.953125 812.570312 161.050781 812.570312 161.308594 C 812.570312 161.652344 812.445312 162.910156 812.386719 163.332031 C 812.328125 163.679688 812.640625 164.03125 813.007812 164.042969 C 813.007812 164.195312 812.945312 164.246094 812.894531 164.335938 C 812.792969 164.511719 812.792969 164.429688 812.660156 164.550781 C 811.789062 165.351562 810.976562 166.546875 810.652344 167.691406 C 810.589844 167.90625 810.355469 168.039062 810.355469 168.289062 C 810.355469 168.515625 810.824219 168.554688 810.824219 168.726562 C 810.824219 168.929688 810.734375 169.488281 810.734375 169.890625 L 810.914062 171.542969 C 810.976562 171.777344 810.984375 171.859375 810.996094 172.113281 C 810.996094 172.285156 811.027344 172.234375 811.058594 172.367188 C 810.90625 172.425781 811.015625 172.515625 810.964844 172.597656 C 810.894531 172.699219 810.863281 172.699219 810.761719 172.75 C 810.488281 172.710938 810.609375 172.792969 810.09375 173.003906 C 809.953125 173.054688 809.828125 173.144531 809.6875 173.1875 C 809.566406 173.226562 809.34375 173.21875 809.191406 173.269531 C 808.582031 173.441406 808.539062 174.027344 809.191406 174.027344 C 809.402344 174.027344 809.535156 174.058594 809.777344 174.058594 C 809.882812 174.058594 809.882812 174.027344 809.972656 174.039062 C 810.285156 174.058594 810.304688 174.027344 810.621094 174.027344 C 811.117188 174.027344 811.65625 173.988281 812.144531 174.070312 C 812.347656 174.109375 812.671875 174.230469 812.824219 174.019531 C 813.027344 173.714844 812.875 173.351562 812.722656 173.054688 C 812.4375 172.488281 812.601562 172.285156 812.601562 171.726562 C 812.601562 171.363281 812.671875 169.75 812.773438 169.457031 C 812.914062 169.03125 812.90625 169.292969 813.261719 169.121094 C 813.472656 169.019531 813.523438 168.828125 813.585938 168.636719 C 813.636719 168.472656 813.765625 168.515625 813.988281 168.21875 C 814.058594 168.128906 814.234375 167.792969 814.261719 167.683594 L 814.3125 167.683594 C 814.363281 167.875 814.4375 168.078125 814.539062 168.21875 C 814.679688 168.441406 815.054688 168.9375 815.238281 169.0625 C 815.875 169.507812 816.324219 169.222656 816.738281 168.707031 C 816.851562 168.574219 817.246094 167.824219 817.378906 167.824219 C 817.5625 167.824219 817.417969 167.894531 817.683594 167.765625 C 817.957031 167.621094 818.230469 167.378906 818.3125 167.074219 C 818.789062 167.113281 819.082031 167.855469 819.355469 168.089844 C 819.742188 168.402344 820.351562 168.796875 820.746094 168.261719 C 821.171875 167.703125 820.746094 166.78125 820.535156 166.273438 C 820.339844 165.828125 820.15625 165.484375 819.894531 165.117188 C 819.710938 164.875 819.171875 164.347656 818.828125 164.417969 C 818.636719 164.457031 818.6875 164.5 818.554688 164.582031 C 818.078125 164.855469 818.28125 164.660156 817.886719 165.054688 C 817.816406 165.128906 817.875 165.117188 817.753906 165.148438 C 817.753906 164.5 818.21875 163.800781 817.875 162.847656 C 817.722656 162.421875 817.125 162.035156 817.113281 161.773438 C 817.429688 161.75 817.742188 161.589844 817.988281 161.425781 C 817.976562 160.921875 817.082031 159.980469 817.082031 159.066406 C 817.082031 158.914062 817.132812 158.8125 817.226562 158.75 C 817.542969 158.953125 817.804688 159.277344 818.058594 159.550781 C 818.097656 159.59375 818.097656 159.601562 818.140625 159.644531 C 818.210938 159.703125 818.28125 159.746094 818.351562 159.804688 C 818.496094 159.917969 818.617188 160.050781 818.757812 160.171875 C 819.023438 160.394531 819.328125 160.554688 819.488281 160.878906 C 819.632812 161.152344 819.742188 161.742188 820.117188 161.742188 C 820.167969 161.5 820.058594 161.550781 820.058594 161.277344 L 820.644531 161.652344 C 820.734375 161.722656 820.847656 161.863281 820.960938 161.863281 C 821.039062 161.863281 821.070312 161.78125 821.070312 161.722656 C 821.070312 161.621094 820.929688 161.476562 820.859375 161.417969 L 820.636719 161.214844 C 820.59375 161.164062 820.574219 161.214844 820.605469 161.144531 C 820.65625 160.972656 821.03125 161.539062 821.164062 161.570312 C 821.246094 161.519531 821.203125 161.488281 821.265625 161.417969 C 821.394531 161.246094 821.570312 161.398438 821.425781 160.789062 C 821.832031 160.515625 821.304688 160.097656 820.695312 160.027344 C 819.976562 159.9375 820.371094 160.273438 819.671875 159.574219 C 819.578125 159.480469 819.519531 159.421875 819.4375 159.339844 C 819.335938 159.25 819.304688 159.175781 819.203125 159.074219 C 819.042969 158.914062 818.898438 158.742188 818.71875 158.597656 C 818.605469 158.519531 818.300781 158.222656 818.21875 158.113281 C 818.289062 157.828125 818.371094 157.972656 818.179688 157.71875 C 818.058594 157.574219 817.988281 157.523438 817.847656 157.402344 C 817.734375 157.300781 817.601562 157.210938 817.488281 157.121094 L 816.71875 156.613281 C 816.546875 156.519531 815.542969 155.984375 815.421875 155.984375 C 814.792969 155.984375 815.023438 156.105469 814.730469 156.105469 C 814.730469 155.800781 814.519531 155.710938 814.519531 155.425781 C 814.519531 155.335938 814.800781 155.234375 814.871094 155.171875 L 815.246094 154.898438 C 816.273438 154.078125 816.730469 152.648438 816.382812 151.359375 C 816.355469 151.269531 816.324219 151.210938 816.292969 151.109375 C 816.191406 150.835938 815.917969 150.398438 815.867188 150.164062 C 816.050781 150.164062 816.273438 150.328125 816.414062 150.398438 C 816.34375 150.136719 815.542969 149.902344 815.277344 149.839844 C 815.085938 149.800781 815.003906 149.789062 814.75 149.789062 C 814.636719 149.304688 814.792969 149.152344 814.253906 148.898438 C 813.9375 148.746094 813.460938 148.734375 813.007812 148.734375 C 813.046875 148.878906 813.097656 148.828125 813.1875 148.9375 C 813.28125 149.019531 813.289062 149.070312 813.269531 149.171875 C 813.136719 149.160156 813.054688 149.109375 812.925781 149.082031 C 812.191406 148.9375 811.867188 149.121094 811.230469 149.109375 C 811.039062 149.109375 810.488281 149.171875 810.386719 149.324219 C 810.601562 149.3125 810.886719 149.222656 811.089844 149.203125 C 811.027344 149.285156 810.914062 149.304688 810.816406 149.332031 C 810.652344 149.394531 810.519531 149.445312 810.355469 149.457031 C 810.195312 149.464844 810.050781 149.566406 809.910156 149.628906 C 809.578125 149.769531 809.109375 150.085938 809.078125 150.480469 L 809.160156 150.335938 C 809.332031 150.003906 809.890625 149.617188 810.265625 149.609375 C 810.1875 149.71875 809.890625 149.921875 809.769531 150.042969 C 809.699219 150.125 809.636719 150.207031 809.546875 150.285156 C 809.007812 150.816406 808.875 151.484375 808.875 152.234375 C 808.875 152.386719 808.898438 152.515625 808.988281 152.578125 C 809.058594 152.4375 808.957031 152.4375 809.078125 152.34375 C 809.097656 152.457031 809.160156 152.609375 809.28125 152.636719 C 809.191406 152.457031 809.140625 151.917969 809.191406 151.675781 C 809.34375 151.886719 809.3125 152.101562 809.578125 152.394531 C 809.648438 152.476562 809.6875 152.527344 809.75 152.609375 L 810.050781 153.066406 C 810.1875 153.246094 810.386719 153.9375 810.386719 154.121094 C 810.386719 154.210938 810.367188 154.179688 810.296875 154.210938 C 810.214844 154.25 810.144531 154.300781 810.09375 154.382812 C 809.789062 154.878906 810.023438 155.265625 810.367188 155.628906 L 811.007812 156.207031 C 811.25 156.421875 811.339844 156.621094 811.71875 156.714844 C 811.828125 156.746094 812.09375 156.816406 812.246094 156.796875 C 812.570312 156.753906 812.488281 156.734375 812.710938 156.886719 L 812.679688 157.179688 C 812.640625 157.242188 812.679688 157.25 812.628906 157.292969 C 812.539062 157.25 812.40625 157.351562 812.316406 157.394531 C 812.042969 157.515625 811.839844 157.699219 811.757812 157.71875 C 811.585938 157.777344 811.484375 157.898438 811.382812 158.023438 L 810.238281 159.441406 C 809.859375 159.917969 809.972656 159.796875 809.910156 160.050781 C 809.789062 160.464844 808.042969 161.214844 807.585938 161.476562 C 807.082031 161.773438 806.96875 161.710938 806.472656 161.773438 C 806.238281 161.792969 806.003906 161.4375 805.679688 161.183594 C 805.589844 161.113281 805.519531 161.042969 805.425781 160.972656 C 805.132812 160.71875 804.339844 160.070312 804.035156 160 C 804.035156 159.703125 804.109375 159.675781 803.84375 159.460938 L 803.417969 159.105469 C 802.941406 158.75 802.371094 158.222656 801.867188 157.921875 C 801.582031 157.757812 801.449219 157.625 801.125 157.464844 C 801.035156 157.425781 800.960938 157.402344 800.910156 157.300781 C 800.851562 157.199219 800.832031 157.128906 800.832031 156.976562 C 801.308594 156.976562 802.363281 157.445312 802.746094 156.875 C 802.871094 156.695312 802.992188 156.246094 803.132812 155.984375 C 803.265625 155.722656 803.265625 155.578125 803.355469 155.335938 C 803.449219 155.164062 803.4375 155.144531 803.367188 155.019531 C 803.519531 154.992188 803.601562 154.929688 803.601562 154.757812 C 803.601562 154.605469 803.507812 154.585938 803.40625 154.515625 C 803.234375 154.394531 803.367188 154.382812 803.367188 154.210938 C 803.367188 154.128906 803.304688 154.121094 803.304688 154.039062 C 803.304688 154.039062 803.378906 153.410156 803.386719 153.359375 C 803.417969 153.1875 803.429688 152.863281 803.488281 152.75 C 803.628906 152.46875 804.035156 152.234375 804.035156 151.878906 C 804.035156 151.523438 803.652344 151.230469 803.4375 150.964844 C 803.355469 150.875 803.285156 150.761719 803.207031 150.683594 C 802.851562 150.335938 802.3125 150.042969 801.792969 150.042969 C 801.289062 150.042969 800.839844 150.113281 800.375 150.257812 C 800.070312 150.347656 799.410156 150.011719 798.234375 150.734375 C 797.695312 151.066406 797.058594 151.816406 796.792969 152.386719 C 796.609375 152.792969 796.457031 153.601562 796.40625 154.070312 C 796.375 154.363281 796.46875 154.757812 796.46875 155.050781 C 796.398438 155.09375 796.367188 155.121094 796.285156 155.144531 C 796.296875 155.265625 796.304688 155.234375 796.316406 155.34375 C 796.226562 155.40625 796.125 155.46875 796.011719 155.527344 C 795.808594 155.648438 795.789062 155.578125 795.566406 155.578125 C 795.261719 155.578125 794.96875 155.78125 794.84375 156.054688 C 794.792969 156.15625 794.773438 156.246094 794.773438 156.390625 C 794.683594 156.441406 794.613281 156.480469 794.53125 156.5625 C 794.265625 156.824219 794.410156 156.449219 793.667969 156.945312 C 793.007812 157.394531 792.835938 157.109375 792.734375 157.128906 C 792.53125 157.160156 793.039062 157.777344 793.058594 157.847656 C 792.875 157.847656 792.816406 157.839844 792.671875 157.878906 C 792.683594 158.082031 792.796875 158.171875 792.957031 158.265625 C 793.425781 158.527344 793.871094 158.425781 794.257812 158.132812 C 794.925781 157.625 794.640625 157.402344 794.570312 157.089844 C 794.613281 157.027344 794.710938 156.894531 794.785156 156.867188 C 795.117188 156.695312 795.414062 157.039062 795.960938 156.441406 C 796.03125 156.371094 796.011719 156.371094 796.0625 156.308594 C 796.125 156.214844 796.253906 156.1875 796.347656 156.125 C 796.46875 156.066406 796.914062 155.839844 796.984375 155.839844 C 797.148438 155.839844 797.28125 155.882812 797.410156 155.964844 C 797.523438 156.035156 797.605469 156.074219 797.714844 156.125 C 798.082031 156.277344 798.75 156.429688 799.136719 156.207031 C 799.316406 156.097656 799.308594 156.105469 799.269531 156.339844 C 799.207031 156.671875 799.105469 156.726562 798.945312 156.976562 C 798.84375 156.9375 798.914062 156.886719 798.792969 156.886719 C 797.980469 156.886719 796.480469 157.75 795.828125 158.234375 C 795.695312 158.335938 795.535156 158.4375 795.421875 158.546875 C 795.25 158.730469 795.414062 158.84375 795.503906 159.015625 C 795.523438 159.144531 794.894531 159.5625 794.753906 159.714844 C 794.152344 160.375 793.769531 161.507812 793.210938 162.074219 C 793.039062 162.238281 792.957031 162.453125 792.746094 162.574219 C 792.613281 162.644531 792.550781 162.664062 792.429688 162.753906 C 792.167969 162.9375 792.003906 163.121094 792.003906 163.464844 C 792.003906 163.609375 792.011719 163.507812 792.035156 163.578125 C 792.054688 163.648438 792.054688 163.628906 792.074219 163.71875 C 792.09375 163.882812 792.085938 163.832031 792.175781 163.933594 C 792.1875 163.941406 792.199219 163.960938 792.207031 163.960938 C 792.257812 164.042969 792.21875 164.0625 792.289062 164.144531 C 792.480469 164.347656 792.804688 164.125 792.96875 164.011719 C 792.96875 164.257812 792.835938 164.378906 793.089844 164.511719 C 793.28125 164.40625 793.222656 164.367188 793.355469 164.277344 C 793.464844 164.519531 793.597656 164.710938 793.839844 164.863281 C 794.234375 165.128906 793.960938 165.046875 793.960938 165.96875 C 793.960938 166.476562 794.003906 166.941406 794.113281 167.410156 L 794.46875 168.515625 C 794.550781 168.746094 794.683594 168.949219 794.867188 169.113281 C 794.792969 169.09375 794.773438 169.082031 794.691406 169.082031 Z M 794.023438 163 C 793.851562 162.65625 794.085938 162.492188 794.296875 162.199219 C 794.417969 162.054688 795.472656 160.960938 795.472656 160.929688 C 795.574219 160.859375 795.523438 160.902344 795.484375 161.023438 C 795.148438 161.539062 794.925781 161.914062 794.664062 162.472656 C 794.640625 162.503906 794.601562 162.605469 794.589844 162.632812 C 794.53125 162.734375 794.152344 162.96875 794.023438 163 Z M 794.023438 163 " fill-opacity="1" fill-rule="evenodd"/></g><g clip-path="url(#568f7f1555)"><g transform="matrix(1, 0, 0, 1, 1050, 102)"><g clip-path="url(#0745c0dbcd)"><g clip-path="url(#08ac5012b1)"><path fill="#000000" d="M 44.199219 10.980469 L 44.734375 10.007812 C 44.671875 10.703125 44.5625 11.414062 44.625 12.113281 C 44.65625 12.453125 45.097656 13.171875 44.625 13.140625 L 44.625 13.246094 C 45.628906 13.554688 43.914062 14.644531 43.910156 15.027344 C 43.910156 15.375 44.4375 15.5 44.5 15.691406 C 44.574219 15.910156 44.472656 16.1875 44.515625 16.410156 C 44.535156 16.492188 44.683594 16.492188 44.726562 16.5625 C 45.046875 17.050781 44.9375 17.09375 45.695312 17.023438 C 45.867188 17.171875 45.074219 17.722656 45.070312 17.832031 C 45.070312 17.898438 45.402344 18.214844 45.457031 18.398438 C 45.523438 18.644531 45.445312 18.898438 45.5625 19.15625 C 45.964844 20.0625 48.121094 19.328125 48.714844 19.445312 C 48.953125 19.492188 49.320312 20.308594 49.230469 20.460938 C 49.21875 20.484375 48.964844 20.578125 48.863281 20.6875 C 47.648438 21.996094 47.3125 23.488281 47.023438 25.210938 C 46.929688 25.777344 46.957031 26.769531 46.824219 27.167969 C 46.707031 27.511719 46.355469 27.832031 45.976562 27.828125 C 44.742188 27.8125 41.335938 27.109375 40.164062 26.636719 C 39.507812 26.375 39.308594 25.320312 38.722656 24.738281 C 38.121094 24.136719 36.746094 23.519531 37.644531 24.90625 C 37.457031 25.058594 35.261719 23.285156 35.816406 25.015625 C 34.566406 24.894531 35.105469 25.710938 35.710938 26.199219 L 34.863281 26.105469 C 34.511719 26.769531 35.308594 26.875 35.605469 27.28125 C 35.175781 27.261719 34.582031 27.304688 34.953125 27.855469 C 35.039062 27.984375 37.507812 28.777344 37.855469 28.851562 C 39.734375 29.25 40.570312 29.785156 42.296875 30.539062 C 43.195312 30.929688 44.121094 31.292969 45.054688 31.601562 C 44.996094 31.761719 44.644531 31.867188 44.484375 31.941406 C 44.109375 32.109375 42.453125 32.859375 42.191406 32.867188 C 41.839844 32.878906 41.070312 32.324219 40.589844 32.257812 C 39.882812 32.160156 39.089844 32.335938 38.398438 32.46875 C 38.375 32.636719 38.40625 32.796875 38.550781 32.90625 C 38.800781 33.101562 39.160156 32.878906 39.253906 33.113281 C 38.742188 33.109375 36.777344 33.808594 36.777344 34.355469 C 36.78125 34.867188 37.496094 34.601562 37.75 34.519531 C 36.6875 35.273438 36.867188 35.863281 38.179688 35.382812 C 36.9375 37 38.707031 36.0625 39.46875 35.703125 C 39.585938 35.832031 38.703125 36.527344 39.140625 36.84375 C 39.582031 37.160156 39.925781 36.4375 40.210938 36.289062 C 40.980469 35.894531 42.011719 35.96875 42.683594 35.210938 L 47.84375 34.296875 C 48.148438 35.671875 48.371094 37.089844 48.71875 38.441406 C 49.371094 38.851562 48.96875 38.867188 48.808594 39.421875 C 48.671875 39.898438 48.636719 40.472656 48.441406 40.890625 C 48.109375 41.613281 47.15625 42.605469 46.683594 43.335938 C 45.828125 44.664062 45.179688 46.125 44.34375 47.464844 C 44.269531 47.769531 45.1875 48.007812 45.160156 48.066406 C 44.714844 48.679688 43.984375 49.699219 43.882812 50.453125 C 43.730469 51.566406 44.027344 52.84375 43.976562 54.007812 C 43.878906 56.339844 43.703125 59.257812 43.441406 61.566406 C 43.375 62.144531 43.1875 63.601562 42.683594 63.933594 C 42.304688 64.183594 40.972656 64.761719 40.515625 64.886719 C 40.261719 64.957031 40 65.046875 39.734375 65.074219 C 38.886719 65.15625 37.097656 64.726562 36.734375 65.726562 C 36.503906 66.367188 36.90625 66.605469 37.367188 66.914062 C 38.90625 67.941406 41.765625 68.148438 43.59375 68.210938 C 44.253906 68.234375 46.539062 68.332031 46.929688 67.882812 C 47.289062 67.457031 47.238281 65.578125 47.070312 65.042969 C 46.898438 64.511719 46.816406 64.820312 46.769531 64.585938 C 46.46875 63.050781 48.148438 59.777344 48.539062 58.164062 C 48.996094 56.296875 48.609375 54.710938 48.511719 52.839844 C 48.589844 52.496094 49.8125 51.363281 50.148438 51.03125 C 50.753906 50.433594 51.453125 49.847656 52.089844 49.304688 L 55.4375 49.875 C 56.675781 51.945312 57.652344 55.761719 60.457031 56.003906 C 63.738281 56.289062 67.324219 55.773438 70.664062 56.109375 C 70.953125 56.136719 72.097656 56.296875 72.265625 56.417969 C 72.359375 56.488281 72.324219 56.75 72.429688 56.921875 C 72.828125 57.574219 73.996094 57.90625 74.238281 59.101562 C 74.378906 59.773438 74.167969 60.921875 74.9375 61.3125 C 76.851562 62.289062 77.039062 58.355469 76.953125 57.253906 C 76.871094 56.222656 75.867188 52.074219 75.152344 51.472656 C 74.976562 51.324219 74.777344 51.242188 74.542969 51.25 C 74.214844 51.257812 72.5 51.863281 72.234375 52.070312 C 72.074219 52.195312 71.972656 52.503906 71.847656 52.535156 C 71.644531 52.582031 70.078125 52.179688 69.738281 52.089844 C 68.453125 51.761719 67.054688 51.128906 65.730469 51.042969 C 64.664062 50.976562 63.558594 51.277344 62.503906 51.441406 L 62.40625 51.371094 C 62.121094 50.578125 61.90625 49.738281 61.925781 48.886719 C 62.636719 48.769531 63.269531 48.800781 63.925781 48.46875 C 64.519531 48.167969 64.828125 47.597656 65.34375 47.300781 C 65.839844 47.011719 67.597656 46.628906 67.382812 45.722656 C 67.34375 45.570312 66.519531 44.710938 66.328125 44.503906 C 65.566406 43.675781 64.316406 42.796875 63.867188 41.792969 C 63.058594 40 62.972656 38.941406 61.546875 37.324219 C 61.328125 37.074219 60.289062 36.214844 60.25 36.136719 C 60.210938 36.058594 60.394531 35.910156 60.417969 35.753906 C 60.539062 34.96875 59.5625 34.132812 59.457031 33.488281 C 59.351562 32.828125 59.5 31.929688 59.453125 31.226562 C 59.25 28.242188 57.105469 21.832031 55.152344 19.566406 C 54.796875 19.152344 53.832031 18.480469 53.765625 18.042969 C 53.738281 17.871094 53.769531 17.226562 53.867188 17.132812 C 54.191406 16.835938 54.117188 17.914062 54.296875 17.890625 L 54.191406 17.023438 C 54.636719 17.34375 54.917969 17.875 54.835938 18.429688 L 54.941406 17.675781 L 55.691406 18.054688 L 54.726562 17.132812 C 55.386719 17.21875 56.007812 17.511719 56.550781 17.890625 C 56.617188 17.410156 54.839844 16.835938 54.9375 16.703125 C 57.398438 15.738281 57.402344 12.5625 56.667969 10.402344 C 57.292969 10.015625 57.121094 9.433594 57.871094 9.917969 C 59.492188 10.960938 58.058594 12.796875 58.539062 14.214844 C 58.65625 14.566406 58.898438 15.011719 59.230469 15.191406 C 59.113281 14.753906 58.769531 14.542969 58.707031 14.046875 C 58.679688 13.832031 58.691406 13.632812 58.710938 13.421875 C 58.71875 13.316406 58.753906 12.914062 58.910156 12.925781 C 58.800781 14.105469 59.175781 15.164062 60.246094 15.738281 C 60.347656 15.792969 60.554688 15.933594 60.628906 15.785156 C 60.054688 15.273438 59.695312 14.472656 59.773438 13.683594 L 60.683594 14.980469 C 61.089844 15.382812 61.449219 15.835938 62.019531 16.011719 C 62.117188 16.042969 62.375 16.144531 62.347656 15.949219 C 61.964844 16.070312 60.839844 14.644531 60.953125 14.546875 C 62.867188 15.09375 64.078125 16.953125 63.101562 18.863281 C 64.132812 18.003906 63.847656 16.476562 63.316406 15.410156 C 63.464844 15.257812 64.019531 16.066406 64.085938 16.195312 C 64.425781 16.828125 64.488281 17.410156 64.28125 18.105469 C 64.808594 17.632812 64.515625 16.871094 64.496094 16.269531 C 64.660156 16.289062 64.664062 16.515625 64.808594 16.65625 C 65.316406 17.125 65.933594 17.445312 66.640625 17.347656 L 65.570312 16.757812 C 65.410156 16.496094 64.265625 15.019531 64.386719 14.867188 C 65.316406 15.929688 67.167969 15.507812 67.988281 16.480469 L 68.464844 17.242188 C 68.402344 15.285156 66.300781 15.554688 65.351562 14.378906 C 66.160156 14.316406 66.980469 14.484375 67.761719 14.65625 L 69.324219 15.511719 C 68.492188 14.136719 67.238281 13.449219 65.78125 12.867188 C 66.144531 12.855469 66.554688 12.699219 66.910156 12.699219 C 67.269531 12.699219 67.578125 12.921875 67.929688 12.867188 C 66.980469 12.035156 65.597656 12.835938 64.601562 12.113281 C 65.683594 12.066406 66.734375 11.222656 67.769531 11.949219 C 67.96875 11.722656 67.355469 11.46875 67.148438 11.390625 C 66.441406 11.121094 65.871094 11.171875 65.140625 11.300781 L 66.3125 10.699219 L 66.644531 10.222656 C 65.910156 10.867188 64.878906 11.121094 63.9375 10.835938 C 61.824219 10.207031 61.882812 7.457031 58.542969 7.738281 C 57.96875 7.785156 57.179688 8.242188 56.910156 8.253906 C 56.640625 8.265625 56.628906 8.054688 56.394531 8.046875 C 56.160156 8.042969 55.898438 8.265625 55.851562 8.261719 C 55.804688 8.261719 55.335938 7.621094 55.15625 7.464844 C 53.195312 5.734375 50.492188 5.753906 48.046875 6.253906 C 45.777344 6.722656 43.804688 8.476562 44.203125 10.972656 Z M 44.199219 10.980469 " fill-opacity="1" fill-rule="nonzero"/></g><g clip-path="url(#f36b1347c8)"><path fill="#000000" d="M 14.773438 0.832031 L 15.199219 1.15625 C 12.808594 0.878906 8.179688 2.269531 7.90625 5.109375 C 7.882812 5.367188 7.804688 5.792969 8.109375 5.90625 C 8.085938 5.5625 8.117188 5.046875 8.433594 4.828125 C 8.347656 5.742188 8.132812 6.65625 8.21875 7.578125 C 8.308594 8.519531 9.015625 9.285156 8.328125 10.144531 C 8.203125 10.304688 7.976562 10.332031 7.867188 10.582031 C 7.59375 11.214844 8.246094 11.214844 8.3125 11.488281 C 8.359375 11.671875 8.15625 12.011719 8.21875 12.3125 C 8.238281 12.402344 8.398438 12.394531 8.4375 12.460938 C 8.707031 12.988281 8.527344 13.089844 9.402344 13.035156 C 9.4375 13.402344 8.859375 13.390625 8.863281 13.734375 C 8.863281 13.914062 9.089844 14.050781 9.136719 14.21875 C 9.265625 14.652344 9.109375 14.953125 9.558594 15.308594 C 9.988281 15.636719 10.9375 15.535156 11.5 15.527344 C 11.898438 15.519531 12.238281 15.253906 12.617188 15.582031 C 13.25 16.128906 12.058594 16.804688 11.707031 17.246094 C 11.257812 17.808594 11.039062 18.332031 10.914062 19.042969 C 10.6875 20.320312 10.757812 22.882812 10.914062 24.199219 C 10.988281 24.835938 11.140625 25.492188 11.328125 26.101562 C 11.179688 26.25 8.082031 26.246094 7.621094 26.214844 C 7.226562 26.1875 6.183594 26.066406 5.847656 25.945312 C 5.460938 25.8125 5.035156 24.71875 4.566406 24.320312 C 4.441406 24.214844 3.402344 23.507812 3.332031 23.507812 C 2.683594 23.503906 3.449219 24.449219 3.492188 24.699219 C 3.3125 24.867188 0.949219 23.394531 1.878906 25.132812 C 0.585938 25.046875 1.667969 25.902344 1.667969 26.160156 C 1.667969 26.265625 0.96875 26.292969 1.449219 26.8125 C 1.546875 26.917969 1.738281 26.953125 1.761719 26.984375 C 1.847656 27.097656 1.386719 27.546875 1.910156 27.859375 C 2.167969 28.015625 3.3125 28.238281 3.652344 28.265625 C 4.105469 28.300781 4.640625 28.164062 5 28.207031 C 5.871094 28.3125 7.625 29.035156 8.667969 29.273438 C 9.707031 29.515625 11.945312 29.828125 12.078125 29.945312 C 12.5 30.304688 12.859375 33.214844 12.972656 33.90625 C 13.046875 34.335938 13.324219 34.972656 13.335938 35.355469 C 13.347656 35.785156 12.691406 37.144531 12.953125 37.4375 C 13.011719 37.5 13.351562 37.335938 13.261719 37.605469 C 11.707031 39.949219 9.945312 42.367188 8.695312 44.894531 C 7.902344 46.503906 7.761719 48.347656 7.679688 50.136719 C 7.5625 52.707031 8.007812 55.257812 7.457031 57.796875 C 7.457031 58.238281 8.445312 58.203125 8.527344 58.296875 C 8.605469 58.394531 8.464844 59.433594 8.425781 59.476562 C 8.386719 59.519531 7.957031 59.328125 7.753906 59.382812 C 7.554688 59.4375 6.664062 60.402344 5.980469 60.632812 C 5.152344 60.914062 3.511719 60.726562 3.054688 61.285156 C 2.503906 61.957031 2.820312 62.585938 3.449219 63.023438 C 5.027344 64.113281 8.765625 64.03125 10.628906 63.792969 C 11.089844 63.734375 12.25 63.597656 12.453125 63.144531 C 12.621094 62.765625 12.539062 60.789062 12.300781 60.414062 C 12.230469 60.304688 12.027344 60.296875 11.980469 60.160156 C 11.9375 60.019531 12.121094 58.804688 12.179688 58.765625 C 12.304688 58.683594 12.566406 58.753906 12.722656 58.664062 C 13.117188 58.4375 13.003906 56.847656 13.058594 56.40625 C 13.175781 55.433594 13.550781 54.46875 13.671875 53.464844 C 13.769531 52.699219 13.6875 51.589844 13.84375 50.933594 C 13.921875 50.578125 15.808594 47.957031 16.175781 47.453125 C 16.363281 47.195312 17.203125 46.054688 17.394531 45.972656 C 17.574219 45.902344 17.535156 46.046875 17.574219 46.109375 C 18.136719 47.066406 18.554688 48.347656 19.070312 49.359375 C 20.085938 51.34375 20.347656 52.160156 22.683594 52.636719 C 25.738281 53.257812 29.007812 52.964844 32.109375 53.214844 C 32.472656 53.234375 32.433594 52.070312 32.484375 52.019531 C 32.792969 52.070312 33.90625 51.90625 34.042969 52.121094 C 34.085938 52.191406 33.972656 52.371094 34.003906 52.480469 C 34.109375 52.875 36.066406 53.324219 36.507812 54.285156 C 36.777344 54.863281 36.675781 55.527344 37.34375 55.925781 C 37.925781 56.273438 38.304688 56.242188 38.578125 55.609375 C 39.378906 53.753906 38.238281 50.382812 37.4375 48.597656 C 36.707031 46.972656 36.609375 46.699219 34.8125 47.398438 C 34.351562 47.578125 33.261719 47.976562 33.550781 48.558594 L 32.644531 48.558594 C 32.535156 48.546875 32.617188 47.976562 32.484375 47.769531 C 32.265625 47.417969 29.695312 47.660156 29.101562 47.578125 C 28.097656 47.445312 27.324219 46.78125 26.132812 46.988281 C 24.941406 47.195312 25.472656 47.265625 25.328125 47.265625 C 24.875 47.261719 24.984375 46.371094 24.914062 46.070312 C 24.84375 45.769531 24.582031 45.566406 24.535156 45.261719 C 24.394531 44.359375 24.308594 42.261719 24.417969 41.378906 C 24.523438 40.503906 25.152344 39.640625 25.171875 38.464844 C 25.191406 37.289062 24.960938 37.726562 25.054688 37.398438 C 25.089844 37.277344 25.359375 37.34375 25.445312 37.230469 C 25.792969 36.796875 23.707031 31.585938 23.484375 30.660156 C 22.921875 28.355469 22.871094 25.9375 22.378906 23.617188 C 22.617188 23.574219 22.691406 23.890625 22.949219 23.824219 C 23.351562 23.722656 23.339844 22.515625 24.011719 23.433594 C 24.476562 24.9375 25.285156 26.3125 25.785156 27.800781 C 26.269531 29.242188 25.914062 28.988281 25.808594 30.253906 C 25.773438 30.640625 25.753906 31.636719 25.816406 31.984375 C 25.855469 32.207031 26.097656 32.519531 26.292969 32.253906 L 26.667969 31.394531 C 26.890625 33.027344 28.371094 33.9375 27.636719 31.5 C 27.925781 31.671875 28.308594 32.925781 28.808594 32.570312 C 29.128906 32.34375 28.570312 31.40625 28.605469 31.070312 C 28.828125 31.234375 28.890625 31.601562 29.097656 31.816406 C 29.320312 32.058594 29.542969 32.148438 29.660156 31.746094 C 29.78125 31.328125 29.285156 30.621094 29.359375 30.527344 C 29.644531 30.679688 29.894531 31.242188 30.210938 30.789062 C 30.289062 30.5 29.34375 29.207031 29.125 28.875 C 28.953125 28.613281 28.667969 28.457031 28.550781 28.15625 C 28.246094 27.367188 28.128906 25.742188 27.910156 24.804688 C 27.644531 23.667969 27.125 21.308594 26.457031 20.433594 C 25.789062 19.5625 25.496094 19.726562 25.484375 19.664062 C 25.445312 19.414062 25.863281 18.839844 25.691406 18.5625 C 25.542969 18.320312 21.109375 17.066406 20.371094 16.726562 C 18.917969 16.0625 19.148438 15.589844 18.242188 14.765625 C 17.824219 14.382812 17.15625 14.519531 17.222656 13.855469 C 17.28125 13.285156 18.859375 12.191406 19.308594 11.621094 C 20.179688 10.511719 20.859375 8.851562 20.769531 7.421875 L 20.980469 7.742188 C 21.023438 6.988281 20.886719 6.210938 20.554688 5.527344 L 20.871094 5.539062 C 20.738281 4.988281 20.367188 4.59375 20.015625 4.183594 C 20.132812 4.09375 20.820312 4.617188 20.660156 4.238281 C 20.527344 3.929688 19.828125 3.617188 19.585938 3.371094 C 19.6875 3.199219 20.101562 3.449219 20.121094 3.425781 C 20.355469 3.140625 19.417969 3.074219 19.261719 2.941406 C 19.09375 2.796875 19.089844 2.097656 18.777344 1.914062 L 18.777344 2.667969 C 17.953125 1.238281 16.1875 1.191406 14.753906 0.835938 Z M 14.773438 0.832031 " fill-opacity="1" fill-rule="nonzero"/></g></g></g></g></svg>