<svg xmlns="http://www.w3.org/2000/svg" xmlns:xlink="http://www.w3.org/1999/xlink" width="2000" zoomAndPan="magnify" viewBox="0 0 1500 1499.999933" height="2000" preserveAspectRatio="xMidYMid meet" version="1.0"><defs><g/><clipPath id="feadb7d558"><path d="M 674 486.179688 L 837 486.179688 L 837 641 L 674 641 Z M 674 486.179688 " clip-rule="nonzero"/></clipPath><clipPath id="5714b8eae8"><rect x="0" width="1399" y="0" height="122"/></clipPath><clipPath id="cee255c2cc"><rect x="0" width="394" y="0" height="54"/></clipPath></defs><path fill="#ff5704" d="M 815.074219 684.347656 C 854.097656 658.796875 900.367188 816.285156 947.011719 816.285156 C 993.65625 816.285156 1033.980469 659.886719 1078.945312 684.347656 C 1114.078125 703.464844 960.988281 820.808594 1023.59375 883.410156 C 1055.046875 914.867188 1214.347656 932.5 1204.4375 970.277344 C 1192.585938 1015.394531 1048.757812 949.101562 1018.394531 984.511719 C 988.015625 1019.917969 1049.386719 1095.890625 1006.601562 1114.457031 C 958.570312 1135.300781 946.78125 1023.230469 928.398438 934.558594 C 906.972656 831.265625 777.664062 708.847656 815.074219 684.347656 " fill-opacity="1" fill-rule="nonzero"/><path fill="#ff5704" d="M 947.011719 793.867188 C 928.484375 793.867188 913.464844 776.414062 913.464844 754.890625 C 913.464844 733.371094 928.484375 715.921875 947.011719 715.921875 C 965.542969 715.921875 980.5625 733.371094 980.5625 754.890625 C 980.5625 776.414062 965.542969 793.867188 947.011719 793.867188 " fill-opacity="1" fill-rule="nonzero"/><path fill="#ffde59" d="M 720.328125 757.042969 C 755.390625 758.917969 713.328125 875.09375 741.636719 895.875 C 769.941406 916.652344 864.070312 839.6875 880.464844 874.5625 C 893.273438 901.820312 748.105469 904.847656 758.214844 970.714844 C 763.296875 1003.8125 852.121094 1085.46875 829.277344 1103.976562 C 801.996094 1126.078125 744.230469 1021.796875 710.03125 1029.753906 C 675.832031 1037.710938 679.242188 1111.152344 645 1103.363281 C 606.570312 1094.625 649.332031 1021.359375 677.664062 959.355469 C 710.664062 887.136719 686.714844 755.253906 720.328125 757.042969 " fill-opacity="1" fill-rule="nonzero"/><path fill="#ffde59" d="M 751.621094 882.269531 C 740.378906 874.011719 739.03125 856.734375 748.621094 843.675781 C 758.207031 830.613281 775.09375 826.714844 786.335938 834.960938 C 797.578125 843.21875 798.925781 860.492188 789.339844 873.554688 C 779.757812 886.617188 762.867188 890.515625 751.621094 882.269531 " fill-opacity="1" fill-rule="nonzero"/><path fill="#9f1cbf" d="M 684.859375 684.351562 C 645.835938 658.792969 599.566406 816.285156 552.921875 816.285156 C 506.273438 816.285156 465.953125 659.886719 420.984375 684.351562 C 385.847656 703.464844 538.941406 820.808594 476.339844 883.410156 C 444.882812 914.867188 285.578125 932.5 295.496094 970.277344 C 307.339844 1015.394531 451.167969 949.101562 481.539062 984.511719 C 511.910156 1019.917969 450.539062 1095.890625 493.332031 1114.460938 C 541.359375 1135.300781 553.148438 1023.230469 571.539062 934.558594 C 592.960938 831.265625 722.265625 708.851562 684.859375 684.351562 " fill-opacity="1" fill-rule="nonzero"/><path fill="#9f1cbf" d="M 552.921875 793.867188 C 571.449219 793.867188 586.46875 776.414062 586.46875 754.890625 C 586.46875 733.371094 571.449219 715.921875 552.921875 715.921875 C 534.390625 715.921875 519.371094 733.371094 519.371094 754.890625 C 519.371094 776.414062 534.390625 793.867188 552.921875 793.867188 " fill-opacity="1" fill-rule="nonzero"/><g clip-path="url(#feadb7d558)"><path fill="#ffde59" d="M 755.492188 486.171875 L 780.503906 536.871094 L 836.445312 544.996094 L 795.96875 584.453125 L 805.523438 640.171875 L 755.492188 613.867188 L 705.457031 640.171875 L 715.011719 584.453125 L 674.53125 544.996094 L 730.472656 536.871094 L 755.492188 486.171875 " fill-opacity="1" fill-rule="nonzero"/></g><path fill="#9f1cbf" d="M 600.421875 620.109375 L 609.476562 638.449219 L 629.714844 641.382812 L 615.070312 655.664062 L 618.523438 675.824219 L 600.421875 666.300781 L 582.320312 675.824219 L 585.777344 655.664062 L 571.132812 641.382812 L 591.371094 638.449219 L 600.421875 620.109375 " fill-opacity="1" fill-rule="nonzero"/><path fill="#00ad7e" d="M 748.542969 664.691406 L 757.59375 683.03125 L 777.832031 685.976562 L 763.1875 700.253906 L 766.640625 720.40625 L 748.542969 710.894531 L 730.4375 720.40625 L 733.898438 700.253906 L 719.25 685.976562 L 739.492188 683.03125 L 748.542969 664.691406 " fill-opacity="1" fill-rule="nonzero"/><path fill="#ff5704" d="M 913.464844 640.171875 L 920.707031 654.847656 L 936.90625 657.199219 L 925.183594 668.625 L 927.953125 684.757812 L 913.464844 677.140625 L 898.972656 684.757812 L 901.742188 668.625 L 890.019531 657.199219 L 906.21875 654.847656 L 913.464844 640.171875 " fill-opacity="1" fill-rule="nonzero"/><path fill="#00ad7e" d="M 885.820312 605.664062 C 885.820312 614.089844 878.984375 620.921875 870.5625 620.921875 C 862.140625 620.921875 855.304688 614.089844 855.304688 605.664062 C 855.304688 597.246094 862.140625 590.410156 870.5625 590.410156 C 878.984375 590.410156 885.820312 597.246094 885.820312 605.664062 " fill-opacity="1" fill-rule="nonzero"/><path fill="#9f1cbf" d="M 1011.066406 667.917969 C 1011.066406 674.5625 1005.679688 679.949219 999.042969 679.949219 C 992.394531 679.949219 987.011719 674.5625 987.011719 667.917969 C 987.011719 661.269531 992.394531 655.886719 999.042969 655.886719 C 1005.679688 655.886719 1011.066406 661.269531 1011.066406 667.917969 " fill-opacity="1" fill-rule="nonzero"/><path fill="#ff5704" d="M 662.839844 620.921875 C 662.839844 627.378906 657.605469 632.609375 651.148438 632.609375 C 644.691406 632.609375 639.457031 627.378906 639.457031 620.921875 C 639.457031 614.464844 644.691406 609.230469 651.148438 609.230469 C 657.605469 609.230469 662.839844 614.464844 662.839844 620.921875 " fill-opacity="1" fill-rule="nonzero"/><g transform="matrix(1, 0, 0, 1, 51, 1154)"><g clip-path="url(#5714b8eae8)"><g fill="#00ad7e" fill-opacity="1"><g transform="translate(0.842152, 97.530623)"><g><path d="M 88.78125 -93.734375 L 55.84375 -37.890625 L 55.84375 0 L 34.953125 0 L 34.953125 -38.03125 L 2.28125 -93.734375 L 23.828125 -93.734375 L 45.53125 -56.234375 L 67.21875 -93.734375 Z M 88.78125 -93.734375 "/></g></g></g><g fill="#00ad7e" fill-opacity="1"><g transform="translate(91.760204, 97.530623)"><g><path d="M 55.171875 2.015625 C 48.023438 2.015625 41.414062 0.785156 35.34375 -1.671875 C 29.28125 -4.128906 23.992188 -7.566406 19.484375 -11.984375 C 14.972656 -16.398438 11.46875 -21.578125 8.96875 -27.515625 C 6.46875 -33.453125 5.21875 -39.90625 5.21875 -46.875 C 5.21875 -53.832031 6.46875 -60.28125 8.96875 -66.21875 C 11.46875 -72.15625 14.972656 -77.332031 19.484375 -81.75 C 23.992188 -86.164062 29.28125 -89.601562 35.34375 -92.0625 C 41.414062 -94.519531 48.023438 -95.75 55.171875 -95.75 C 62.304688 -95.75 68.910156 -94.519531 74.984375 -92.0625 C 81.054688 -89.601562 86.320312 -86.164062 90.78125 -81.75 C 95.25 -77.332031 98.734375 -72.15625 101.234375 -66.21875 C 103.734375 -60.28125 104.984375 -53.832031 104.984375 -46.875 C 104.984375 -39.90625 103.734375 -33.453125 101.234375 -27.515625 C 98.734375 -21.578125 95.25 -16.398438 90.78125 -11.984375 C 86.320312 -7.566406 81.054688 -4.128906 74.984375 -1.671875 C 68.910156 0.785156 62.304688 2.015625 55.171875 2.015625 Z M 55.171875 -17.140625 C 60.796875 -17.140625 65.816406 -18.429688 70.234375 -21.015625 C 74.648438 -23.609375 78.128906 -27.132812 80.671875 -31.59375 C 83.222656 -36.0625 84.5 -41.15625 84.5 -46.875 C 84.5 -52.488281 83.222656 -57.550781 80.671875 -62.0625 C 78.128906 -66.570312 74.648438 -70.117188 70.234375 -72.703125 C 65.816406 -75.296875 60.796875 -76.59375 55.171875 -76.59375 C 49.640625 -76.59375 44.640625 -75.296875 40.171875 -72.703125 C 35.710938 -70.117188 32.1875 -66.570312 29.59375 -62.0625 C 27 -57.550781 25.703125 -52.488281 25.703125 -46.875 C 25.703125 -41.25 27 -36.179688 29.59375 -31.671875 C 32.1875 -27.160156 35.710938 -23.609375 40.171875 -21.015625 C 44.640625 -18.429688 49.640625 -17.140625 55.171875 -17.140625 Z M 55.171875 -17.140625 "/></g></g></g><g fill="#00ad7e" fill-opacity="1"><g transform="translate(201.959846, 97.530623)"><g><path d="M 48.46875 2.015625 C 41.0625 2.015625 34.457031 0.429688 28.65625 -2.734375 C 22.851562 -5.910156 18.253906 -10.285156 14.859375 -15.859375 C 11.472656 -21.441406 9.78125 -27.894531 9.78125 -35.21875 L 9.78125 -93.734375 L 30.125 -93.734375 L 30.125 -36.15625 C 30.125 -30.351562 31.84375 -25.734375 35.28125 -22.296875 C 38.71875 -18.859375 43.113281 -17.140625 48.46875 -17.140625 C 53.914062 -17.140625 58.359375 -18.859375 61.796875 -22.296875 C 65.234375 -25.734375 66.953125 -30.351562 66.953125 -36.15625 L 66.953125 -93.734375 L 87.171875 -93.734375 L 87.171875 -35.21875 C 87.171875 -27.894531 85.492188 -21.441406 82.140625 -15.859375 C 78.796875 -10.285156 74.203125 -5.910156 68.359375 -2.734375 C 62.515625 0.429688 55.882812 2.015625 48.46875 2.015625 Z M 48.46875 2.015625 "/></g></g></g><g fill="#00ad7e" fill-opacity="1"><g transform="translate(298.903384, 97.530623)"><g><path d="M 75.390625 -93.734375 L 75.390625 -74.859375 L 49.28125 -74.859375 L 49.28125 0 L 28.921875 0 L 28.921875 -74.859375 L 2.953125 -74.859375 L 2.953125 -93.734375 Z M 75.390625 -93.734375 "/></g></g></g><g fill="#00ad7e" fill-opacity="1"><g transform="translate(377.100973, 97.530623)"><g><path d="M 66.28125 -93.734375 L 86.5 -93.734375 L 86.5 0 L 66.28125 0 L 66.28125 -38.703125 L 31.0625 -38.703125 L 31.0625 0 L 10.71875 0 L 10.71875 -93.734375 L 31.0625 -93.734375 L 31.0625 -57.578125 L 66.28125 -57.578125 Z M 66.28125 -93.734375 "/></g></g></g><g fill="#00ad7e" fill-opacity="1"><g transform="translate(474.44621, 97.530623)"><g/></g></g><g fill="#00ad7e" fill-opacity="1"><g transform="translate(506.448276, 97.530623)"><g><path d="M 31.0625 -18.875 L 68.421875 -18.875 L 68.421875 0 L 10.71875 0 L 10.71875 -93.734375 L 66.953125 -93.734375 L 66.953125 -74.984375 L 31.0625 -74.984375 L 31.0625 -56.515625 L 63.46875 -56.515625 L 63.46875 -38.15625 L 31.0625 -38.15625 Z M 31.0625 -18.875 "/></g></g></g><g fill="#00ad7e" fill-opacity="1"><g transform="translate(581.298369, 97.530623)"><g><path d="M 70.171875 -93.734375 L 89.984375 -93.734375 L 89.984375 0 L 73.109375 0 L 30.671875 -58.515625 L 30.671875 0 L 10.71875 0 L 10.71875 -93.734375 L 29.0625 -93.734375 L 70.171875 -36.5625 Z M 70.171875 -93.734375 "/></g></g></g><g fill="#00ad7e" fill-opacity="1"><g transform="translate(681.991101, 97.530623)"><g><path d="M 62.265625 0 L 44.0625 -32 L 31.0625 -32 L 31.0625 0 L 10.71875 0 L 10.71875 -93.734375 L 48.609375 -93.734375 C 54.859375 -93.734375 60.4375 -92.394531 65.34375 -89.71875 C 70.257812 -87.039062 74.144531 -83.378906 77 -78.734375 C 79.851562 -74.097656 81.28125 -68.742188 81.28125 -62.671875 C 81.28125 -56.597656 79.738281 -51.171875 76.65625 -46.390625 C 73.582031 -41.617188 69.457031 -37.984375 64.28125 -35.484375 L 85.03125 0 Z M 31.0625 -74.984375 L 31.0625 -50.75 L 47.265625 -50.75 C 51.460938 -50.75 54.765625 -51.882812 57.171875 -54.15625 C 59.585938 -56.4375 60.796875 -59.316406 60.796875 -62.796875 C 60.796875 -66.367188 59.585938 -69.289062 57.171875 -71.5625 C 54.765625 -73.84375 51.460938 -74.984375 47.265625 -74.984375 Z M 31.0625 -74.984375 "/></g></g></g><g fill="#00ad7e" fill-opacity="1"><g transform="translate(770.498935, 97.530623)"><g><path d="M 10.71875 0 L 10.71875 -93.734375 L 31.0625 -93.734375 L 31.0625 0 Z M 10.71875 0 "/></g></g></g><g fill="#00ad7e" fill-opacity="1"><g transform="translate(812.275731, 97.530623)"><g><path d="M 53.703125 2.015625 C 46.828125 2.015625 40.441406 0.785156 34.546875 -1.671875 C 28.648438 -4.128906 23.515625 -7.566406 19.140625 -11.984375 C 14.773438 -16.398438 11.382812 -21.578125 8.96875 -27.515625 C 6.5625 -33.453125 5.359375 -39.859375 5.359375 -46.734375 C 5.359375 -53.691406 6.5625 -60.160156 8.96875 -66.140625 C 11.382812 -72.128906 14.773438 -77.332031 19.140625 -81.75 C 23.515625 -86.164062 28.648438 -89.601562 34.546875 -92.0625 C 40.441406 -94.519531 46.828125 -95.75 53.703125 -95.75 C 61.285156 -95.75 68.242188 -94.1875 74.578125 -91.0625 C 80.921875 -87.9375 86.234375 -83.5625 90.515625 -77.9375 C 94.804688 -72.3125 97.664062 -65.796875 99.09375 -58.390625 L 78.734375 -58.390625 C 76.859375 -63.921875 73.6875 -68.3125 69.21875 -71.5625 C 64.757812 -74.820312 59.585938 -76.453125 53.703125 -76.453125 C 48.429688 -76.453125 43.695312 -75.132812 39.5 -72.5 C 35.300781 -69.875 31.972656 -66.328125 29.515625 -61.859375 C 27.066406 -57.398438 25.84375 -52.359375 25.84375 -46.734375 C 25.84375 -41.109375 27.066406 -36.085938 29.515625 -31.671875 C 31.972656 -27.253906 35.300781 -23.75 39.5 -21.15625 C 43.695312 -18.570312 48.429688 -17.28125 53.703125 -17.28125 C 59.859375 -17.28125 65.164062 -19.019531 69.625 -22.5 C 74.09375 -25.976562 77.175781 -30.707031 78.875 -36.6875 L 99.359375 -36.6875 C 97.929688 -28.925781 95.097656 -22.140625 90.859375 -16.328125 C 86.617188 -10.523438 81.304688 -6.015625 74.921875 -2.796875 C 68.535156 0.410156 61.460938 2.015625 53.703125 2.015625 Z M 53.703125 2.015625 "/></g></g></g><g fill="#00ad7e" fill-opacity="1"><g transform="translate(915.512537, 97.530623)"><g><path d="M 66.28125 -93.734375 L 86.5 -93.734375 L 86.5 0 L 66.28125 0 L 66.28125 -38.703125 L 31.0625 -38.703125 L 31.0625 0 L 10.71875 0 L 10.71875 -93.734375 L 31.0625 -93.734375 L 31.0625 -57.578125 L 66.28125 -57.578125 Z M 66.28125 -93.734375 "/></g></g></g><g fill="#00ad7e" fill-opacity="1"><g transform="translate(1012.857824, 97.530623)"><g><path d="M 125.609375 0 L 104.984375 0 L 95.75 -61.1875 L 67.75 -0.140625 L 62.796875 -0.140625 L 34.8125 -61.1875 L 25.578125 0 L 4.828125 0 L 19.546875 -93.734375 L 39.90625 -93.734375 L 65.21875 -36.28125 L 90.65625 -93.734375 L 111.015625 -93.734375 Z M 125.609375 0 "/></g></g></g><g fill="#00ad7e" fill-opacity="1"><g transform="translate(1143.410261, 97.530623)"><g><path d="M 31.0625 -18.875 L 68.421875 -18.875 L 68.421875 0 L 10.71875 0 L 10.71875 -93.734375 L 66.953125 -93.734375 L 66.953125 -74.984375 L 31.0625 -74.984375 L 31.0625 -56.515625 L 63.46875 -56.515625 L 63.46875 -38.15625 L 31.0625 -38.15625 Z M 31.0625 -18.875 "/></g></g></g><g fill="#00ad7e" fill-opacity="1"><g transform="translate(1218.260304, 97.530623)"><g><path d="M 70.171875 -93.734375 L 89.984375 -93.734375 L 89.984375 0 L 73.109375 0 L 30.671875 -58.515625 L 30.671875 0 L 10.71875 0 L 10.71875 -93.734375 L 29.0625 -93.734375 L 70.171875 -36.5625 Z M 70.171875 -93.734375 "/></g></g></g><g fill="#00ad7e" fill-opacity="1"><g transform="translate(1318.953087, 97.530623)"><g><path d="M 75.390625 -93.734375 L 75.390625 -74.859375 L 49.28125 -74.859375 L 49.28125 0 L 28.921875 0 L 28.921875 -74.859375 L 2.953125 -74.859375 L 2.953125 -93.734375 Z M 75.390625 -93.734375 "/></g></g></g></g></g><g transform="matrix(1, 0, 0, 1, 562, 1299)"><g clip-path="url(#cee255c2cc)"><g fill="#000000" fill-opacity="1"><g transform="translate(0.291612, 43.466884)"><g><path d="M 19.46875 -39.28125 C 21.9375 -39.28125 24.15625 -38.738281 26.125 -37.65625 C 28.09375 -36.570312 29.644531 -35.078125 30.78125 -33.171875 C 31.925781 -31.265625 32.5 -29.113281 32.5 -26.71875 C 32.5 -24.320312 31.925781 -22.171875 30.78125 -20.265625 C 29.644531 -18.359375 28.09375 -16.859375 26.125 -15.765625 C 24.15625 -14.679688 21.9375 -14.140625 19.46875 -14.140625 L 10.265625 -14.140625 L 10.265625 0 L 5.390625 0 L 5.390625 -39.28125 Z M 19.1875 -18.921875 C 21.582031 -18.921875 23.554688 -19.65625 25.109375 -21.125 C 26.660156 -22.601562 27.4375 -24.46875 27.4375 -26.71875 C 27.4375 -28.957031 26.660156 -30.816406 25.109375 -32.296875 C 23.554688 -33.773438 21.582031 -34.515625 19.1875 -34.515625 L 10.265625 -34.515625 L 10.265625 -18.921875 Z M 19.1875 -18.921875 "/></g></g></g><g fill="#000000" fill-opacity="1"><g transform="translate(48.656036, 43.466884)"><g><path d="M 28.234375 0 L 19.25 -15.375 L 10.265625 -15.375 L 10.265625 0 L 5.390625 0 L 5.390625 -39.28125 L 20.265625 -39.28125 C 22.734375 -39.28125 24.929688 -38.765625 26.859375 -37.734375 C 28.785156 -36.710938 30.300781 -35.289062 31.40625 -33.46875 C 32.507812 -31.65625 33.0625 -29.59375 33.0625 -27.28125 C 33.0625 -24.507812 32.265625 -22.113281 30.671875 -20.09375 C 29.078125 -18.070312 26.992188 -16.6875 24.421875 -15.9375 L 33.78125 0 Z M 10.265625 -34.625 L 10.265625 -20.03125 L 20.03125 -20.03125 C 22.425781 -20.03125 24.363281 -20.710938 25.84375 -22.078125 C 27.320312 -23.453125 28.0625 -25.203125 28.0625 -27.328125 C 28.0625 -29.421875 27.320312 -31.160156 25.84375 -32.546875 C 24.363281 -33.929688 22.425781 -34.625 20.03125 -34.625 Z M 10.265625 -34.625 "/></g></g></g><g fill="#000000" fill-opacity="1"><g transform="translate(98.927764, 43.466884)"><g><path d="M 23.234375 0.671875 C 20.273438 0.671875 17.539062 0.160156 15.03125 -0.859375 C 12.53125 -1.890625 10.351562 -3.320312 8.5 -5.15625 C 6.644531 -6.988281 5.210938 -9.128906 4.203125 -11.578125 C 3.191406 -14.035156 2.6875 -16.722656 2.6875 -19.640625 C 2.6875 -22.523438 3.191406 -25.203125 4.203125 -27.671875 C 5.210938 -30.140625 6.644531 -32.289062 8.5 -34.125 C 10.351562 -35.957031 12.53125 -37.390625 15.03125 -38.421875 C 17.539062 -39.453125 20.273438 -39.96875 23.234375 -39.96875 C 26.222656 -39.96875 28.972656 -39.453125 31.484375 -38.421875 C 33.992188 -37.390625 36.164062 -35.957031 38 -34.125 C 39.832031 -32.289062 41.257812 -30.144531 42.28125 -27.6875 C 43.3125 -25.238281 43.828125 -22.554688 43.828125 -19.640625 C 43.828125 -16.722656 43.3125 -14.03125 42.28125 -11.5625 C 41.257812 -9.09375 39.832031 -6.945312 38 -5.125 C 36.164062 -3.3125 33.992188 -1.890625 31.484375 -0.859375 C 28.972656 0.160156 26.222656 0.671875 23.234375 0.671875 Z M 23.234375 -4.15625 C 26.222656 -4.15625 28.882812 -4.828125 31.21875 -6.171875 C 33.5625 -7.515625 35.40625 -9.351562 36.75 -11.6875 C 38.101562 -14.03125 38.78125 -16.679688 38.78125 -19.640625 C 38.78125 -22.597656 38.101562 -25.242188 36.75 -27.578125 C 35.40625 -29.921875 33.5625 -31.765625 31.21875 -33.109375 C 28.882812 -34.460938 26.222656 -35.140625 23.234375 -35.140625 C 20.273438 -35.140625 17.625 -34.453125 15.28125 -33.078125 C 12.945312 -31.710938 11.109375 -29.859375 9.765625 -27.515625 C 8.421875 -25.179688 7.75 -22.554688 7.75 -19.640625 C 7.75 -16.679688 8.421875 -14.039062 9.765625 -11.71875 C 11.109375 -9.40625 12.945312 -7.566406 15.28125 -6.203125 C 17.625 -4.835938 20.273438 -4.15625 23.234375 -4.15625 Z M 23.234375 -4.15625 "/></g></g></g><g fill="#000000" fill-opacity="1"><g transform="translate(159.57759, 43.466884)"><g><path d="M 21.21875 -19.46875 L 42.265625 -19.46875 C 42.191406 -15.539062 41.3125 -12.0625 39.625 -9.03125 C 37.9375 -6 35.625 -3.625 32.6875 -1.90625 C 29.75 -0.1875 26.394531 0.671875 22.625 0.671875 C 19.738281 0.671875 17.078125 0.164062 14.640625 -0.84375 C 12.210938 -1.851562 10.109375 -3.273438 8.328125 -5.109375 C 6.554688 -6.941406 5.171875 -9.09375 4.171875 -11.5625 C 3.179688 -14.03125 2.6875 -16.722656 2.6875 -19.640625 C 2.6875 -22.554688 3.179688 -25.25 4.171875 -27.71875 C 5.171875 -30.195312 6.554688 -32.34375 8.328125 -34.15625 C 10.109375 -35.96875 12.203125 -37.378906 14.609375 -38.390625 C 17.023438 -39.398438 19.65625 -39.90625 22.5 -39.90625 C 25.6875 -39.90625 28.613281 -39.285156 31.28125 -38.046875 C 33.957031 -36.816406 36.210938 -35.125 38.046875 -32.96875 C 39.878906 -30.820312 41.078125 -28.363281 41.640625 -25.59375 L 36.59375 -25.59375 C 36.03125 -27.46875 35.066406 -29.113281 33.703125 -30.53125 C 32.335938 -31.957031 30.707031 -33.070312 28.8125 -33.875 C 26.925781 -34.675781 24.863281 -35.078125 22.625 -35.078125 C 19.738281 -35.078125 17.171875 -34.410156 14.921875 -33.078125 C 12.679688 -31.753906 10.925781 -29.929688 9.65625 -27.609375 C 8.382812 -25.296875 7.75 -22.640625 7.75 -19.640625 C 7.75 -16.609375 8.375 -13.921875 9.625 -11.578125 C 10.875 -9.242188 12.613281 -7.421875 14.84375 -6.109375 C 17.070312 -4.804688 19.664062 -4.15625 22.625 -4.15625 C 25.050781 -4.15625 27.253906 -4.601562 29.234375 -5.5 C 31.222656 -6.394531 32.878906 -7.640625 34.203125 -9.234375 C 35.535156 -10.828125 36.445312 -12.6875 36.9375 -14.8125 L 21.21875 -14.8125 Z M 21.21875 -19.46875 "/></g></g></g><g fill="#000000" fill-opacity="1"><g transform="translate(218.488418, 43.466884)"><g><path d="M 28.234375 0 L 19.25 -15.375 L 10.265625 -15.375 L 10.265625 0 L 5.390625 0 L 5.390625 -39.28125 L 20.265625 -39.28125 C 22.734375 -39.28125 24.929688 -38.765625 26.859375 -37.734375 C 28.785156 -36.710938 30.300781 -35.289062 31.40625 -33.46875 C 32.507812 -31.65625 33.0625 -29.59375 33.0625 -27.28125 C 33.0625 -24.507812 32.265625 -22.113281 30.671875 -20.09375 C 29.078125 -18.070312 26.992188 -16.6875 24.421875 -15.9375 L 33.78125 0 Z M 10.265625 -34.625 L 10.265625 -20.03125 L 20.03125 -20.03125 C 22.425781 -20.03125 24.363281 -20.710938 25.84375 -22.078125 C 27.320312 -23.453125 28.0625 -25.203125 28.0625 -27.328125 C 28.0625 -29.421875 27.320312 -31.160156 25.84375 -32.546875 C 24.363281 -33.929688 22.425781 -34.625 20.03125 -34.625 Z M 10.265625 -34.625 "/></g></g></g><g fill="#000000" fill-opacity="1"><g transform="translate(268.760146, 43.466884)"><g><path d="M 32.828125 0 L 28.90625 -9.421875 L 10.046875 -9.421875 L 6.171875 0 L 0.953125 0 L 17 -39.28125 L 21.609375 -39.28125 L 38.171875 0 Z M 19.421875 -32.5 L 11.90625 -13.921875 L 27.046875 -13.921875 Z M 19.421875 -32.5 "/></g></g></g><g fill="#000000" fill-opacity="1"><g transform="translate(322.00505, 43.466884)"><g><path d="M 51.1875 0 L 46.1875 0 L 41.078125 -30.703125 L 27.5 -1.015625 L 26.203125 -1.015625 L 12.625 -30.640625 L 7.515625 0 L 2.46875 0 L 9.09375 -39.28125 L 13.8125 -39.28125 L 26.828125 -10.4375 L 39.84375 -39.28125 L 44.671875 -39.28125 Z M 51.1875 0 "/></g></g></g></g></g></svg>