<svg xmlns="http://www.w3.org/2000/svg" xmlns:xlink="http://www.w3.org/1999/xlink" width="2000" zoomAndPan="magnify" viewBox="0 0 1500 1499.999933" height="2000" preserveAspectRatio="xMidYMid meet" version="1.0"><defs><g/><clipPath id="ccfa39d289"><path d="M 681 312.8125 L 830 312.8125 L 830 454 L 681 454 Z M 681 312.8125 " clip-rule="nonzero"/></clipPath><clipPath id="d53c2666ca"><rect x="0" width="361" y="0" height="49"/></clipPath></defs><path fill="#ff5704" d="M 809.484375 493.964844 C 845.15625 470.605469 887.457031 614.574219 930.09375 614.574219 C 972.734375 614.574219 1009.59375 471.601562 1050.699219 493.964844 C 1082.816406 511.441406 942.867188 618.707031 1000.097656 675.933594 C 1028.851562 704.6875 1174.476562 720.808594 1165.417969 755.339844 C 1154.582031 796.585938 1023.105469 735.984375 995.347656 768.351562 C 967.578125 800.71875 1023.679688 870.167969 984.570312 887.140625 C 940.660156 906.195312 929.882812 803.75 913.078125 722.691406 C 893.492188 628.265625 775.289062 516.359375 809.484375 493.964844 " fill-opacity="1" fill-rule="nonzero"/><path fill="#ff5704" d="M 930.09375 594.078125 C 913.15625 594.078125 899.425781 578.125 899.425781 558.449219 C 899.425781 538.777344 913.15625 522.828125 930.09375 522.828125 C 947.03125 522.828125 960.761719 538.777344 960.761719 558.449219 C 960.761719 578.125 947.03125 594.078125 930.09375 594.078125 " fill-opacity="1" fill-rule="nonzero"/><path fill="#ffde59" d="M 722.875 560.417969 C 754.925781 562.128906 716.476562 668.332031 742.351562 687.328125 C 768.230469 706.320312 854.277344 635.964844 869.261719 667.847656 C 880.96875 692.761719 748.265625 695.53125 757.507812 755.742188 C 762.152344 785.996094 843.351562 860.640625 822.46875 877.5625 C 797.53125 897.765625 744.726562 802.4375 713.460938 809.710938 C 682.199219 816.984375 685.316406 884.121094 654.015625 877 C 618.886719 869.011719 657.976562 802.035156 683.871094 745.359375 C 714.039062 679.339844 692.148438 558.78125 722.875 560.417969 " fill-opacity="1" fill-rule="nonzero"/><path fill="#ffde59" d="M 751.480469 674.890625 C 741.203125 667.34375 739.972656 651.550781 748.734375 639.609375 C 757.5 627.667969 772.9375 624.105469 783.214844 631.644531 C 793.492188 639.191406 794.722656 654.984375 785.960938 666.925781 C 777.203125 678.867188 761.757812 682.429688 751.480469 674.890625 " fill-opacity="1" fill-rule="nonzero"/><path fill="#9f1cbf" d="M 690.449219 493.96875 C 654.777344 470.601562 612.480469 614.574219 569.839844 614.574219 C 527.199219 614.574219 490.339844 471.601562 449.230469 493.96875 C 417.113281 511.441406 557.058594 618.707031 499.835938 675.933594 C 471.082031 704.6875 325.453125 720.808594 334.519531 755.339844 C 345.347656 796.585938 476.824219 735.984375 504.589844 768.351562 C 532.351562 800.71875 476.25 870.167969 515.367188 887.144531 C 559.273438 906.195312 570.046875 803.75 586.859375 722.691406 C 606.445312 628.265625 724.644531 516.363281 690.449219 493.96875 " fill-opacity="1" fill-rule="nonzero"/><path fill="#9f1cbf" d="M 569.839844 594.078125 C 586.777344 594.078125 600.507812 578.125 600.507812 558.449219 C 600.507812 538.777344 586.777344 522.828125 569.839844 522.828125 C 552.902344 522.828125 539.171875 538.777344 539.171875 558.449219 C 539.171875 578.125 552.902344 594.078125 569.839844 594.078125 " fill-opacity="1" fill-rule="nonzero"/><g clip-path="url(#ccfa39d289)"><path fill="#ffde59" d="M 755.019531 312.804688 L 777.882812 359.148438 L 829.023438 366.578125 L 792.019531 402.644531 L 800.753906 453.578125 L 755.019531 429.535156 L 709.277344 453.578125 L 718.011719 402.644531 L 681.011719 366.578125 L 732.148438 359.148438 L 755.019531 312.804688 " fill-opacity="1" fill-rule="nonzero"/></g><path fill="#9f1cbf" d="M 613.265625 435.242188 L 621.539062 452.003906 L 640.042969 454.6875 L 626.652344 467.742188 L 629.8125 486.171875 L 613.265625 477.46875 L 596.71875 486.171875 L 599.875 467.742188 L 586.488281 454.6875 L 604.988281 452.003906 L 613.265625 435.242188 " fill-opacity="1" fill-rule="nonzero"/><path fill="#00ad7e" d="M 748.667969 475.996094 L 756.9375 492.761719 L 775.441406 495.449219 L 762.054688 508.503906 L 765.210938 526.925781 L 748.667969 518.230469 L 732.117188 526.925781 L 735.277344 508.503906 L 721.890625 495.449219 L 740.390625 492.761719 L 748.667969 475.996094 " fill-opacity="1" fill-rule="nonzero"/><path fill="#ff5704" d="M 899.425781 453.578125 L 906.050781 466.996094 L 920.855469 469.148438 L 910.140625 479.589844 L 912.671875 494.335938 L 899.425781 487.375 L 886.179688 494.335938 L 888.710938 479.589844 L 877.996094 469.148438 L 892.800781 466.996094 L 899.425781 453.578125 " fill-opacity="1" fill-rule="nonzero"/><path fill="#00ad7e" d="M 874.15625 422.039062 C 874.15625 429.738281 867.90625 435.984375 860.210938 435.984375 C 852.507812 435.984375 846.261719 429.738281 846.261719 422.039062 C 846.261719 414.339844 852.507812 408.089844 860.210938 408.089844 C 867.90625 408.089844 874.15625 414.339844 874.15625 422.039062 " fill-opacity="1" fill-rule="nonzero"/><path fill="#9f1cbf" d="M 988.648438 478.945312 C 988.648438 485.019531 983.726562 489.941406 977.65625 489.941406 C 971.582031 489.941406 966.65625 485.019531 966.65625 478.945312 C 966.65625 472.867188 971.582031 467.945312 977.65625 467.945312 C 983.726562 467.945312 988.648438 472.867188 988.648438 478.945312 " fill-opacity="1" fill-rule="nonzero"/><path fill="#ff5704" d="M 670.324219 435.984375 C 670.324219 441.886719 665.539062 446.667969 659.632812 446.667969 C 653.730469 446.667969 648.945312 441.886719 648.945312 435.984375 C 648.945312 430.082031 653.730469 425.292969 659.632812 425.292969 C 665.539062 425.292969 670.324219 430.082031 670.324219 435.984375 " fill-opacity="1" fill-rule="nonzero"/><g fill="#00ad7e" fill-opacity="1"><g transform="translate(111.790482, 1012.443517)"><g><path d="M 81.15625 -85.6875 L 51.046875 -34.640625 L 51.046875 0 L 31.953125 0 L 31.953125 -34.765625 L 2.078125 -85.6875 L 21.78125 -85.6875 L 41.625 -51.40625 L 61.453125 -85.6875 Z M 81.15625 -85.6875 "/></g></g></g><g fill="#00ad7e" fill-opacity="1"><g transform="translate(194.901727, 1012.443517)"><g><path d="M 50.4375 1.84375 C 43.90625 1.84375 37.863281 0.722656 32.3125 -1.515625 C 26.757812 -3.765625 21.921875 -6.910156 17.796875 -10.953125 C 13.679688 -14.992188 10.484375 -19.726562 8.203125 -25.15625 C 5.921875 -30.582031 4.78125 -36.476562 4.78125 -42.84375 C 4.78125 -49.207031 5.921875 -55.101562 8.203125 -60.53125 C 10.484375 -65.957031 13.679688 -70.6875 17.796875 -74.71875 C 21.921875 -78.757812 26.757812 -81.898438 32.3125 -84.140625 C 37.863281 -86.390625 43.90625 -87.515625 50.4375 -87.515625 C 56.957031 -87.515625 62.992188 -86.390625 68.546875 -84.140625 C 74.097656 -81.898438 78.910156 -78.757812 82.984375 -74.71875 C 87.066406 -70.6875 90.25 -65.957031 92.53125 -60.53125 C 94.820312 -55.101562 95.96875 -49.207031 95.96875 -42.84375 C 95.96875 -36.476562 94.820312 -30.582031 92.53125 -25.15625 C 90.25 -19.726562 87.066406 -14.992188 82.984375 -10.953125 C 78.910156 -6.910156 74.097656 -3.765625 68.546875 -1.515625 C 62.992188 0.722656 56.957031 1.84375 50.4375 1.84375 Z M 50.4375 -15.671875 C 55.570312 -15.671875 60.160156 -16.851562 64.203125 -19.21875 C 68.242188 -21.582031 71.425781 -24.804688 73.75 -28.890625 C 76.070312 -32.972656 77.234375 -37.625 77.234375 -42.84375 C 77.234375 -47.976562 76.070312 -52.609375 73.75 -56.734375 C 71.425781 -60.859375 68.242188 -64.101562 64.203125 -66.46875 C 60.160156 -68.832031 55.570312 -70.015625 50.4375 -70.015625 C 45.375 -70.015625 40.800781 -68.832031 36.71875 -66.46875 C 32.632812 -64.101562 29.410156 -60.859375 27.046875 -56.734375 C 24.679688 -52.609375 23.5 -47.976562 23.5 -42.84375 C 23.5 -37.695312 24.679688 -33.0625 27.046875 -28.9375 C 29.410156 -24.820312 32.632812 -21.582031 36.71875 -19.21875 C 40.800781 -16.851562 45.375 -15.671875 50.4375 -15.671875 Z M 50.4375 -15.671875 "/></g></g></g><g fill="#00ad7e" fill-opacity="1"><g transform="translate(295.63892, 1012.443517)"><g><path d="M 44.3125 1.84375 C 37.539062 1.84375 31.5 0.394531 26.1875 -2.5 C 20.882812 -5.40625 16.679688 -9.40625 13.578125 -14.5 C 10.484375 -19.601562 8.9375 -25.5 8.9375 -32.1875 L 8.9375 -85.6875 L 27.546875 -85.6875 L 27.546875 -33.046875 C 27.546875 -27.742188 29.113281 -23.519531 32.25 -20.375 C 35.394531 -17.238281 39.414062 -15.671875 44.3125 -15.671875 C 49.289062 -15.671875 53.347656 -17.238281 56.484375 -20.375 C 59.628906 -23.519531 61.203125 -27.742188 61.203125 -33.046875 L 61.203125 -85.6875 L 79.6875 -85.6875 L 79.6875 -32.1875 C 79.6875 -25.5 78.15625 -19.601562 75.09375 -14.5 C 72.03125 -9.40625 67.828125 -5.40625 62.484375 -2.5 C 57.140625 0.394531 51.082031 1.84375 44.3125 1.84375 Z M 44.3125 1.84375 "/></g></g></g><g fill="#00ad7e" fill-opacity="1"><g transform="translate(384.258263, 1012.443517)"><g><path d="M 68.921875 -85.6875 L 68.921875 -68.421875 L 45.046875 -68.421875 L 45.046875 0 L 26.4375 0 L 26.4375 -68.421875 L 2.6875 -68.421875 L 2.6875 -85.6875 Z M 68.921875 -85.6875 "/></g></g></g><g fill="#00ad7e" fill-opacity="1"><g transform="translate(455.741304, 1012.443517)"><g><path d="M 60.59375 -85.6875 L 79.078125 -85.6875 L 79.078125 0 L 60.59375 0 L 60.59375 -35.375 L 28.390625 -35.375 L 28.390625 0 L 9.796875 0 L 9.796875 -85.6875 L 28.390625 -85.6875 L 28.390625 -52.640625 L 60.59375 -52.640625 Z M 60.59375 -85.6875 "/></g></g></g><g fill="#00ad7e" fill-opacity="1"><g transform="translate(544.727854, 1012.443517)"><g/></g></g><g fill="#00ad7e" fill-opacity="1"><g transform="translate(573.982017, 1012.443517)"><g><path d="M 28.390625 -17.265625 L 62.546875 -17.265625 L 62.546875 0 L 9.796875 0 L 9.796875 -85.6875 L 61.203125 -85.6875 L 61.203125 -68.546875 L 28.390625 -68.546875 L 28.390625 -51.65625 L 58.015625 -51.65625 L 58.015625 -34.890625 L 28.390625 -34.890625 Z M 28.390625 -17.265625 "/></g></g></g><g fill="#00ad7e" fill-opacity="1"><g transform="translate(642.405, 1012.443517)"><g><path d="M 64.140625 -85.6875 L 82.25 -85.6875 L 82.25 0 L 66.828125 0 L 28.03125 -53.484375 L 28.03125 0 L 9.796875 0 L 9.796875 -85.6875 L 26.5625 -85.6875 L 64.140625 -33.421875 Z M 64.140625 -85.6875 "/></g></g></g><g fill="#00ad7e" fill-opacity="1"><g transform="translate(734.451607, 1012.443517)"><g><path d="M 56.921875 0 L 40.265625 -29.25 L 28.390625 -29.25 L 28.390625 0 L 9.796875 0 L 9.796875 -85.6875 L 44.4375 -85.6875 C 50.144531 -85.6875 55.242188 -84.460938 59.734375 -82.015625 C 64.222656 -79.566406 67.769531 -76.21875 70.375 -71.96875 C 72.988281 -67.726562 74.296875 -62.832031 74.296875 -57.28125 C 74.296875 -51.738281 72.890625 -46.78125 70.078125 -42.40625 C 67.265625 -38.039062 63.488281 -34.71875 58.75 -32.4375 L 77.734375 0 Z M 28.390625 -68.546875 L 28.390625 -46.390625 L 43.203125 -46.390625 C 47.046875 -46.390625 50.066406 -47.429688 52.265625 -49.515625 C 54.472656 -51.597656 55.578125 -54.226562 55.578125 -57.40625 C 55.578125 -60.675781 54.472656 -63.347656 52.265625 -65.421875 C 50.066406 -67.503906 47.046875 -68.546875 43.203125 -68.546875 Z M 28.390625 -68.546875 "/></g></g></g><g fill="#00ad7e" fill-opacity="1"><g transform="translate(815.35959, 1012.443517)"><g><path d="M 9.796875 0 L 9.796875 -85.6875 L 28.390625 -85.6875 L 28.390625 0 Z M 9.796875 0 "/></g></g></g><g fill="#00ad7e" fill-opacity="1"><g transform="translate(853.549162, 1012.443517)"><g><path d="M 49.078125 1.84375 C 42.796875 1.84375 36.960938 0.722656 31.578125 -1.515625 C 26.191406 -3.765625 21.5 -6.910156 17.5 -10.953125 C 13.5 -14.992188 10.394531 -19.726562 8.1875 -25.15625 C 5.988281 -30.582031 4.890625 -36.4375 4.890625 -42.71875 C 4.890625 -49.082031 5.988281 -55 8.1875 -60.46875 C 10.394531 -65.9375 13.5 -70.6875 17.5 -74.71875 C 21.5 -78.757812 26.191406 -81.898438 31.578125 -84.140625 C 36.960938 -86.390625 42.796875 -87.515625 49.078125 -87.515625 C 56.015625 -87.515625 62.378906 -86.085938 68.171875 -83.234375 C 73.972656 -80.378906 78.832031 -76.378906 82.75 -71.234375 C 86.664062 -66.097656 89.273438 -60.144531 90.578125 -53.375 L 71.96875 -53.375 C 70.257812 -58.425781 67.363281 -62.441406 63.28125 -65.421875 C 59.195312 -68.398438 54.460938 -69.890625 49.078125 -69.890625 C 44.265625 -69.890625 39.941406 -68.6875 36.109375 -66.28125 C 32.273438 -63.875 29.234375 -60.628906 26.984375 -56.546875 C 24.742188 -52.472656 23.625 -47.863281 23.625 -42.71875 C 23.625 -37.582031 24.742188 -32.992188 26.984375 -28.953125 C 29.234375 -24.910156 32.273438 -21.707031 36.109375 -19.34375 C 39.941406 -16.976562 44.265625 -15.796875 49.078125 -15.796875 C 54.710938 -15.796875 59.566406 -17.382812 63.640625 -20.5625 C 67.722656 -23.75 70.539062 -28.078125 72.09375 -33.546875 L 90.828125 -33.546875 C 89.515625 -26.441406 86.921875 -20.238281 83.046875 -14.9375 C 79.171875 -9.632812 74.316406 -5.507812 68.484375 -2.5625 C 62.648438 0.375 56.179688 1.84375 49.078125 1.84375 Z M 49.078125 1.84375 "/></g></g></g><g fill="#00ad7e" fill-opacity="1"><g transform="translate(947.921392, 1012.443517)"><g><path d="M 60.59375 -85.6875 L 79.078125 -85.6875 L 79.078125 0 L 60.59375 0 L 60.59375 -35.375 L 28.390625 -35.375 L 28.390625 0 L 9.796875 0 L 9.796875 -85.6875 L 28.390625 -85.6875 L 28.390625 -52.640625 L 60.59375 -52.640625 Z M 60.59375 -85.6875 "/></g></g></g><g fill="#00ad7e" fill-opacity="1"><g transform="translate(1036.907987, 1012.443517)"><g><path d="M 114.8125 0 L 95.96875 0 L 87.515625 -55.9375 L 61.9375 -0.125 L 57.40625 -0.125 L 31.828125 -55.9375 L 23.375 0 L 4.40625 0 L 17.875 -85.6875 L 36.484375 -85.6875 L 59.609375 -33.171875 L 82.875 -85.6875 L 101.46875 -85.6875 Z M 114.8125 0 "/></g></g></g><g fill="#00ad7e" fill-opacity="1"><g transform="translate(1156.250354, 1012.443517)"><g><path d="M 28.390625 -17.265625 L 62.546875 -17.265625 L 62.546875 0 L 9.796875 0 L 9.796875 -85.6875 L 61.203125 -85.6875 L 61.203125 -68.546875 L 28.390625 -68.546875 L 28.390625 -51.65625 L 58.015625 -51.65625 L 58.015625 -34.890625 L 28.390625 -34.890625 Z M 28.390625 -17.265625 "/></g></g></g><g fill="#00ad7e" fill-opacity="1"><g transform="translate(1224.673291, 1012.443517)"><g><path d="M 64.140625 -85.6875 L 82.25 -85.6875 L 82.25 0 L 66.828125 0 L 28.03125 -53.484375 L 28.03125 0 L 9.796875 0 L 9.796875 -85.6875 L 26.5625 -85.6875 L 64.140625 -33.421875 Z M 64.140625 -85.6875 "/></g></g></g><g fill="#00ad7e" fill-opacity="1"><g transform="translate(1316.719945, 1012.443517)"><g><path d="M 68.921875 -85.6875 L 68.921875 -68.421875 L 45.046875 -68.421875 L 45.046875 0 L 26.4375 0 L 26.4375 -68.421875 L 2.6875 -68.421875 L 2.6875 -85.6875 Z M 68.921875 -85.6875 "/></g></g></g><g transform="matrix(1, 0, 0, 1, 578, 1056)"><g clip-path="url(#d53c2666ca)"><g fill="#000000" fill-opacity="1"><g transform="translate(0.409476, 39.571292)"><g><path d="M 17.796875 -35.90625 C 20.054688 -35.90625 22.082031 -35.410156 23.875 -34.421875 C 25.675781 -33.429688 27.097656 -32.0625 28.140625 -30.3125 C 29.179688 -28.570312 29.703125 -26.609375 29.703125 -24.421875 C 29.703125 -22.234375 29.179688 -20.265625 28.140625 -18.515625 C 27.097656 -16.773438 25.675781 -15.40625 23.875 -14.40625 C 22.082031 -13.414062 20.054688 -12.921875 17.796875 -12.921875 L 9.390625 -12.921875 L 9.390625 0 L 4.921875 0 L 4.921875 -35.90625 Z M 17.546875 -17.28125 C 19.734375 -17.28125 21.535156 -17.957031 22.953125 -19.3125 C 24.367188 -20.664062 25.078125 -22.367188 25.078125 -24.421875 C 25.078125 -26.472656 24.367188 -28.171875 22.953125 -29.515625 C 21.535156 -30.867188 19.734375 -31.546875 17.546875 -31.546875 L 9.390625 -31.546875 L 9.390625 -17.28125 Z M 17.546875 -17.28125 "/></g></g></g><g fill="#000000" fill-opacity="1"><g transform="translate(44.62102, 39.571292)"><g><path d="M 25.796875 0 L 17.59375 -14.0625 L 9.390625 -14.0625 L 9.390625 0 L 4.921875 0 L 4.921875 -35.90625 L 18.515625 -35.90625 C 20.773438 -35.90625 22.785156 -35.4375 24.546875 -34.5 C 26.304688 -33.5625 27.691406 -32.257812 28.703125 -30.59375 C 29.710938 -28.9375 30.21875 -27.050781 30.21875 -24.9375 C 30.21875 -22.40625 29.488281 -20.210938 28.03125 -18.359375 C 26.582031 -16.515625 24.675781 -15.25 22.3125 -14.5625 L 30.875 0 Z M 9.390625 -31.65625 L 9.390625 -18.3125 L 18.3125 -18.3125 C 20.5 -18.3125 22.269531 -18.9375 23.625 -20.1875 C 24.976562 -21.4375 25.65625 -23.035156 25.65625 -24.984375 C 25.65625 -26.898438 24.976562 -28.488281 23.625 -29.75 C 22.269531 -31.019531 20.5 -31.65625 18.3125 -31.65625 Z M 9.390625 -31.65625 "/></g></g></g><g fill="#000000" fill-opacity="1"><g transform="translate(90.576094, 39.571292)"><g><path d="M 21.234375 0.609375 C 18.535156 0.609375 16.039062 0.140625 13.75 -0.796875 C 11.457031 -1.734375 9.460938 -3.039062 7.765625 -4.71875 C 6.078125 -6.394531 4.769531 -8.351562 3.84375 -10.59375 C 2.925781 -12.832031 2.46875 -15.285156 2.46875 -17.953125 C 2.46875 -20.585938 2.925781 -23.03125 3.84375 -25.28125 C 4.769531 -27.539062 6.078125 -29.507812 7.765625 -31.1875 C 9.460938 -32.863281 11.457031 -34.171875 13.75 -35.109375 C 16.039062 -36.046875 18.535156 -36.515625 21.234375 -36.515625 C 23.972656 -36.515625 26.488281 -36.046875 28.78125 -35.109375 C 31.070312 -34.171875 33.050781 -32.863281 34.71875 -31.1875 C 36.394531 -29.507812 37.703125 -27.550781 38.640625 -25.3125 C 39.585938 -23.070312 40.0625 -20.617188 40.0625 -17.953125 C 40.0625 -15.285156 39.585938 -12.820312 38.640625 -10.5625 C 37.703125 -8.3125 36.394531 -6.351562 34.71875 -4.6875 C 33.050781 -3.03125 31.070312 -1.734375 28.78125 -0.796875 C 26.488281 0.140625 23.972656 0.609375 21.234375 0.609375 Z M 21.234375 -3.796875 C 23.972656 -3.796875 26.410156 -4.410156 28.546875 -5.640625 C 30.679688 -6.867188 32.363281 -8.550781 33.59375 -10.6875 C 34.832031 -12.832031 35.453125 -15.253906 35.453125 -17.953125 C 35.453125 -20.648438 34.832031 -23.066406 33.59375 -25.203125 C 32.363281 -27.347656 30.679688 -29.035156 28.546875 -30.265625 C 26.410156 -31.492188 23.972656 -32.109375 21.234375 -32.109375 C 18.535156 -32.109375 16.113281 -31.484375 13.96875 -30.234375 C 11.832031 -28.992188 10.148438 -27.300781 8.921875 -25.15625 C 7.691406 -23.019531 7.078125 -20.617188 7.078125 -17.953125 C 7.078125 -15.253906 7.691406 -12.84375 8.921875 -10.71875 C 10.148438 -8.601562 11.832031 -6.921875 13.96875 -5.671875 C 16.113281 -4.421875 18.535156 -3.796875 21.234375 -3.796875 Z M 21.234375 -3.796875 "/></g></g></g><g fill="#000000" fill-opacity="1"><g transform="translate(146.018135, 39.571292)"><g><path d="M 19.390625 -17.796875 L 38.625 -17.796875 C 38.5625 -14.203125 37.757812 -11.019531 36.21875 -8.25 C 34.675781 -5.488281 32.5625 -3.320312 29.875 -1.75 C 27.195312 -0.175781 24.128906 0.609375 20.671875 0.609375 C 18.035156 0.609375 15.601562 0.148438 13.375 -0.765625 C 11.15625 -1.691406 9.234375 -2.992188 7.609375 -4.671875 C 5.992188 -6.347656 4.734375 -8.3125 3.828125 -10.5625 C 2.921875 -12.820312 2.46875 -15.285156 2.46875 -17.953125 C 2.46875 -20.617188 2.921875 -23.078125 3.828125 -25.328125 C 4.734375 -27.585938 5.992188 -29.546875 7.609375 -31.203125 C 9.234375 -32.867188 11.148438 -34.160156 13.359375 -35.078125 C 15.566406 -36.003906 17.96875 -36.46875 20.5625 -36.46875 C 23.476562 -36.46875 26.15625 -35.90625 28.59375 -34.78125 C 31.039062 -33.65625 33.101562 -32.109375 34.78125 -30.140625 C 36.457031 -28.171875 37.550781 -25.921875 38.0625 -23.390625 L 33.453125 -23.390625 C 32.929688 -25.097656 32.046875 -26.601562 30.796875 -27.90625 C 29.554688 -29.207031 28.070312 -30.222656 26.34375 -30.953125 C 24.613281 -31.691406 22.722656 -32.0625 20.671875 -32.0625 C 18.035156 -32.0625 15.691406 -31.453125 13.640625 -30.234375 C 11.585938 -29.023438 9.976562 -27.359375 8.8125 -25.234375 C 7.65625 -23.117188 7.078125 -20.691406 7.078125 -17.953125 C 7.078125 -15.179688 7.648438 -12.726562 8.796875 -10.59375 C 9.941406 -8.457031 11.53125 -6.789062 13.5625 -5.59375 C 15.601562 -4.394531 17.972656 -3.796875 20.671875 -3.796875 C 22.890625 -3.796875 24.90625 -4.207031 26.71875 -5.03125 C 28.53125 -5.851562 30.046875 -6.988281 31.265625 -8.4375 C 32.484375 -9.894531 33.3125 -11.597656 33.75 -13.546875 L 19.390625 -13.546875 Z M 19.390625 -17.796875 "/></g></g></g><g fill="#000000" fill-opacity="1"><g transform="translate(199.8705, 39.571292)"><g><path d="M 25.796875 0 L 17.59375 -14.0625 L 9.390625 -14.0625 L 9.390625 0 L 4.921875 0 L 4.921875 -35.90625 L 18.515625 -35.90625 C 20.773438 -35.90625 22.785156 -35.4375 24.546875 -34.5 C 26.304688 -33.5625 27.691406 -32.257812 28.703125 -30.59375 C 29.710938 -28.9375 30.21875 -27.050781 30.21875 -24.9375 C 30.21875 -22.40625 29.488281 -20.210938 28.03125 -18.359375 C 26.582031 -16.515625 24.675781 -15.25 22.3125 -14.5625 L 30.875 0 Z M 9.390625 -31.65625 L 9.390625 -18.3125 L 18.3125 -18.3125 C 20.5 -18.3125 22.269531 -18.9375 23.625 -20.1875 C 24.976562 -21.4375 25.65625 -23.035156 25.65625 -24.984375 C 25.65625 -26.898438 24.976562 -28.488281 23.625 -29.75 C 22.269531 -31.019531 20.5 -31.65625 18.3125 -31.65625 Z M 9.390625 -31.65625 "/></g></g></g><g fill="#000000" fill-opacity="1"><g transform="translate(245.825575, 39.571292)"><g><path d="M 30.015625 0 L 26.421875 -8.625 L 9.1875 -8.625 L 5.640625 0 L 0.875 0 L 15.546875 -35.90625 L 19.75 -35.90625 L 34.875 0 Z M 17.75 -29.703125 L 10.875 -12.71875 L 24.71875 -12.71875 Z M 17.75 -29.703125 "/></g></g></g><g fill="#000000" fill-opacity="1"><g transform="translate(294.498529, 39.571292)"><g><path d="M 46.78125 0 L 42.21875 0 L 37.546875 -28.0625 L 25.140625 -0.921875 L 23.953125 -0.921875 L 11.546875 -28.015625 L 6.875 0 L 2.25 0 L 8.3125 -35.90625 L 12.625 -35.90625 L 24.515625 -9.546875 L 36.421875 -35.90625 L 40.828125 -35.90625 Z M 46.78125 0 "/></g></g></g></g></g></svg>